<svg width="48" height="48" viewBox="0 0 48 48" fill="none" xmlns="http://www.w3.org/2000/svg">
<path d="M26.1268 25.8203C24.6806 25.8203 23.9447 28.002 23.9447 30.1838C23.9447 32.4063 24.7186 34.5475 26.1396 34.5475C27.5858 34.5475 28.309 32.3045 28.309 30.1431C28.309 27.9001 27.5224 25.8203 26.1268 25.8203Z" fill="#BC6C25"/>
<path d="M37.3779 13.8555C36.8812 13.8555 36.3926 13.9116 35.9139 14.0177C33.7706 5.78472 28.7116 0 22.8115 0C15.8798 0 10.1094 7.98463 8.86397 18.543C3.94153 18.7998 0 25.2931 0 33.2671C0 41.4039 4.104 48 9.16659 48H37.3779C43.2443 48 48 40.3565 48 30.9278C48 21.499 43.2443 13.8555 37.3779 13.8555ZM17.7663 37.5242C15.267 37.5242 13.5036 33.7519 13.5036 30.0407C13.5036 26.5335 15.1021 22.8428 17.8424 22.8428C19.4409 22.8428 20.6842 24.1275 21.2551 26.0034L19.6566 27.7979C19.2887 26.2686 18.4513 25.8201 17.7916 25.8201C16.32 25.8201 15.6222 28.0629 15.6222 30.1631C15.6222 32.4673 16.4849 34.5472 17.817 34.5472C18.5021 34.5472 19.3267 33.9965 19.6566 32.5488L21.3693 34.1597C20.8365 36.3008 19.1873 37.5242 17.7663 37.5242ZM26.1142 37.5242C23.5514 37.5242 21.826 33.8743 21.826 30.1427C21.826 26.3093 23.6528 22.8428 26.1521 22.8428C28.7275 22.8428 30.4276 26.5335 30.4276 30.2039C30.4276 34.017 28.6133 37.5242 26.1142 37.5242ZM34.5201 40.1305H30.8903C30.8903 38.168 31.0362 37.2721 32.0449 36.5042C32.5957 36.0884 33.0734 35.7151 33.0734 34.9364C33.0734 34.4246 32.8677 34.2646 32.6421 34.2646C32.297 34.2646 31.9187 34.6378 31.6665 35.0324L30.8902 33.6778C31.2418 33.0379 31.9585 32.4727 32.8212 32.4727C33.8962 32.4727 34.5134 33.3472 34.5134 34.9043C34.5134 36.0775 34.1684 36.6109 33.5778 37.1654C33.1995 37.5174 32.7682 37.8587 32.7682 38.3172H34.5201V40.1305Z" fill="#BC6C25"/>
</svg>
