<svg width="48" height="31" viewBox="0 0 48 31" fill="none" xmlns="http://www.w3.org/2000/svg">
<path d="M27.8188 10.5961C27.848 10.8497 27.8968 10.879 28.3552 10.9277C29.0965 11.0253 29.5355 11.2886 30.1695 12.0397L30.7352 12.7127L30.706 20.0869L30.6767 27.4512L30.3841 28.0365C30.0232 28.7583 29.6135 29.0119 28.5503 29.1679C27.8578 29.2752 27.7992 29.2947 27.7992 29.5093V29.7434H31.262H34.7247V29.5093C34.7247 29.3045 34.6759 29.2752 34.1199 29.2167C33.4176 29.1484 32.5788 28.7778 32.2861 28.4071C31.8082 27.7926 31.7984 27.617 31.8179 20.6623L31.8472 14.1661L38.3825 22.2035C44.1374 29.2752 44.947 30.2311 45.1616 30.2116L45.4054 30.1824L45.4542 21.3061L45.503 12.4299L45.7273 11.9714C46.0102 11.3959 46.3028 11.2106 47.2099 11.0155C47.883 10.8692 47.9415 10.84 47.9708 10.5961L48 10.3327H44.7812H41.5525V10.5766C41.5525 10.7717 41.6111 10.8204 41.9232 10.8692C43.1132 11.0448 43.6985 11.3569 44.0106 12.0007C44.0984 12.186 44.2154 12.6737 44.2739 13.0932C44.391 13.9613 44.4203 22.2328 44.313 22.2328C44.2642 22.2328 42.1085 19.5601 39.5042 16.2827L34.7734 10.3425L31.2815 10.3327H27.7895L27.8188 10.5961Z" fill="#BC6C25"/>
<path d="M17.6843 25.8955L30.3158 4.01697" stroke="#BC6C25" stroke-width="3"/>
<path d="M9.99776 0.107401C6.06316 0.752417 2.80582 3.13898 1.12878 6.61132C0.333259 8.25611 0 9.7289 0 11.5349C0 12.9755 0.129003 13.8463 0.505263 14.9965C1.08578 16.7703 1.93505 18.1571 3.18208 19.3612C4.63337 20.7479 6.20291 21.5542 8.51422 22.1132C9.14849 22.2745 9.73975 22.3067 11.6103 22.296C13.8034 22.296 13.9646 22.2745 14.8676 22.0057C16.5232 21.5005 17.8347 20.7264 19.1462 19.4902L19.888 18.7914V17.8669V16.9531L18.7377 18.0711C16.4587 20.2857 14.9106 20.9307 12.2016 20.8232C10.2773 20.7479 9.20224 20.3072 8.04121 19.1139C5.7944 16.8348 4.95588 10.8039 6.29966 6.54682C6.97693 4.38601 8.11646 2.98848 9.91176 2.10695C11.2663 1.44044 12.3628 1.27918 13.8141 1.52644C16.5124 1.97795 18.512 3.90225 19.415 6.90158C19.5548 7.36384 19.6085 7.41759 19.888 7.41759H20.2105V3.70875V-0.000102997H19.9095C19.6408 -0.000102997 19.587 0.0643997 19.4688 0.419159C19.4043 0.655666 19.2 0.967424 19.0172 1.11793C18.512 1.54794 18.2647 1.53719 16.5017 0.945923C15.7922 0.709417 14.8031 0.429911 14.2979 0.311657C13.2551 0.0751514 10.9008 -0.0431042 9.99776 0.107401Z" fill="#BC6C25"/>
</svg>
