<svg width="80" height="80" viewBox="0 0 80 80" fill="none" xmlns="http://www.w3.org/2000/svg">
<path d="M40 0C17.9431 0 0 17.9431 0 40C0 62.0569 17.9431 80 40 80C62.0569 80 80 62.0569 80 40C80 17.9431 62.0569 0 40 0Z" fill="#606C38"/>
<path d="M60.2734 31.5229L38.6066 53.1892C37.9565 53.8392 37.1033 54.1664 36.25 54.1664C35.3967 54.1664 34.5435 53.8392 33.8934 53.1892L23.0603 42.3561C21.7566 41.053 21.7566 38.946 23.0603 37.6429C24.3634 36.3392 26.4697 36.3392 27.7734 37.6429L36.25 46.1195L55.5603 26.8098C56.8634 25.5061 58.9697 25.5061 60.2734 26.8098C61.5765 28.1129 61.5765 30.2192 60.2734 31.5229Z" fill="#FEFAE0"/>
</svg>
