<svg width="32" height="32" viewBox="0 0 28 28" fill="none" xmlns="http://www.w3.org/2000/svg">
<path d="M16.0943 19.1932C16.023 19.6161 15.9097 20.0246 15.757 20.4154L17.1268 21.6176C16.9347 22.0092 16.716 22.3855 16.4636 22.7389L14.7048 22.1897C14.4274 22.5181 14.1168 22.8186 13.7778 23.0872L14.3447 24.7908C13.9799 25.0353 13.5914 25.2468 13.1871 25.4332L11.9459 24.1064C11.5426 24.2543 11.1212 24.364 10.6842 24.4331L10.2935 26.1858C10.0726 26.2028 9.85075 26.2185 9.625 26.2185C9.39925 26.2185 9.17744 26.2028 8.95606 26.1858L8.56537 24.4331C8.12875 24.364 7.707 24.2543 7.30363 24.1064L6.06244 25.4332C5.65819 25.2472 5.26969 25.0353 4.90481 24.7908L5.47181 23.0872C5.13275 22.8186 4.82256 22.5177 4.54519 22.1897L2.78644 22.7389C2.534 22.3855 2.31569 22.0092 2.12319 21.6176L3.493 20.4154C3.34031 20.0246 3.227 19.6166 3.15569 19.1932L1.34619 18.8148C1.32869 18.6004 1.3125 18.3855 1.3125 18.1668C1.3125 17.9482 1.32869 17.7333 1.34619 17.5189L3.15569 17.1405C3.227 16.7176 3.34031 16.309 3.493 15.9183L2.12319 14.7161C2.31525 14.3245 2.534 13.9482 2.78644 13.5948L4.54519 14.144C4.82256 13.8156 5.13319 13.5151 5.47225 13.2465L4.90525 11.5429C5.27012 11.2984 5.65862 11.0869 6.06287 10.9005L7.30406 12.2273C7.70744 12.0794 8.12875 11.9696 8.56581 11.9006L8.9565 10.1479C9.17744 10.1309 9.39925 10.1152 9.625 10.1152C9.85075 10.1152 10.0726 10.1309 10.2939 10.1479L10.6846 11.9006C11.1213 11.9696 11.543 12.0794 11.9464 12.2273L13.1876 10.9005C13.5918 11.0865 13.9803 11.2984 14.3452 11.5429L13.7782 13.2465C14.1173 13.5151 14.4274 13.816 14.7048 14.1444L16.4636 13.5952C16.716 13.9486 16.9343 14.325 17.1268 14.7165L15.757 15.9187C15.9097 16.3095 16.023 16.7176 16.0943 17.1409L17.9038 17.5193C17.9213 17.7333 17.9375 17.9482 17.9375 18.1668C17.9375 18.3855 17.9213 18.6004 17.9038 18.8148L16.0943 19.1932ZM9.625 13.9292C7.20869 13.9292 5.25 15.8264 5.25 18.1668C5.25 20.5073 7.20869 22.4045 9.625 22.4045C12.0413 22.4045 14 20.5073 14 18.1668C14 15.8264 12.0413 13.9292 9.625 13.9292V13.9292Z" fill="#606C38"/>
<path d="M22.1633 7.2779C22.0951 7.49698 22.0058 7.70717 21.896 7.90507L22.5868 9.1874C22.3536 9.47302 22.0876 9.73067 21.7928 9.95654L20.4689 9.28741C20.2646 9.3942 20.0476 9.48065 19.8214 9.54633L19.3734 10.9278C19.1888 10.949 19.0024 10.9626 18.8125 10.9626C18.6226 10.9626 18.4363 10.949 18.2521 10.9282L17.8041 9.54675C17.5779 9.48107 17.3609 9.3942 17.1566 9.28783L15.8327 9.95696C15.5378 9.73109 15.2718 9.47344 15.0386 9.18782L15.7294 7.9055C15.6192 7.7076 15.5299 7.49741 15.4621 7.27832L14.0359 6.84438C14.014 6.66555 14 6.48502 14 6.30111C14 6.11719 14.014 5.93667 14.0354 5.75826L15.4617 5.32432C15.5295 5.10523 15.6192 4.89504 15.729 4.69714L15.0382 3.41482C15.2714 3.1292 15.5374 2.87154 15.8322 2.64568L17.1561 3.31481C17.3604 3.20802 17.5774 3.12157 17.8036 3.05588L18.2516 1.6744C18.4362 1.65321 18.6226 1.63965 18.8125 1.63965C19.0024 1.63965 19.1887 1.65321 19.3729 1.67397L19.8209 3.05546C20.0471 3.12114 20.2641 3.20802 20.4684 3.31438L21.7923 2.64525C22.0872 2.87112 22.3532 3.12877 22.5864 3.41439L21.8956 4.69672C22.0058 4.89462 22.0951 5.10481 22.1629 5.3239L23.5891 5.75784C23.611 5.93667 23.625 6.11719 23.625 6.30111C23.625 6.48502 23.611 6.66555 23.5896 6.84396L22.1633 7.2779ZM18.8125 4.60603C17.8461 4.60603 17.0625 5.365 17.0625 6.30111C17.0625 7.23721 17.8461 7.99618 18.8125 7.99618C19.7789 7.99618 20.5625 7.23721 20.5625 6.30111C20.5625 5.365 19.7789 4.60603 18.8125 4.60603Z" fill="#606C38"/>
<path d="M25.6983 16.8402C25.6309 17.0754 25.536 17.2983 25.4144 17.5064L25.8497 18.3937C25.6519 18.6382 25.4249 18.8582 25.1724 19.0497L24.2563 18.6281C24.0419 18.7459 23.8114 18.8378 23.5686 18.9031L23.2282 19.8303C23.0711 19.8489 22.9123 19.8612 22.75 19.8612C22.5877 19.8612 22.4289 19.8489 22.2718 19.8303L21.9314 18.9031C21.6886 18.8378 21.4585 18.7459 21.2437 18.6281L20.3276 19.0497C20.0751 18.8582 19.8481 18.6382 19.6503 18.3937L20.0856 17.5064C19.964 17.2987 19.8691 17.0754 19.8017 16.8406L18.8444 16.5109C18.8252 16.3584 18.8125 16.2045 18.8125 16.0473C18.8125 15.8901 18.8252 15.7363 18.8444 15.5841L19.8017 15.2544C19.8691 15.0193 19.964 14.7964 20.0856 14.5887L19.6503 13.7013C19.8481 13.4568 20.0751 13.2369 20.3276 13.0453L21.2437 13.467C21.4581 13.3492 21.6886 13.2572 21.9314 13.192L22.2718 12.2648C22.4289 12.2457 22.5877 12.2334 22.75 12.2334C22.9123 12.2334 23.0711 12.2457 23.2282 12.2643L23.5686 13.1915C23.8114 13.2568 24.0415 13.3488 24.2563 13.4666L25.1724 13.0449C25.4249 13.2365 25.6519 13.4564 25.8497 13.7009L25.4144 14.5883C25.536 14.7959 25.6309 15.0193 25.6983 15.2544L26.6556 15.5841C26.6748 15.7363 26.6875 15.8901 26.6875 16.0473C26.6875 16.2045 26.6748 16.3584 26.6556 16.5105L25.6983 16.8402ZM22.75 14.776C22.0251 14.776 21.4375 15.3451 21.4375 16.0473C21.4375 16.7495 22.0251 17.3186 22.75 17.3186C23.4749 17.3186 24.0625 16.7495 24.0625 16.0473C24.0625 15.3451 23.4749 14.776 22.75 14.776Z" fill="#606C38"/>
<path d="M0.91 18.8476C0.925312 19.0341 1.06487 19.1887 1.25387 19.2281L2.77856 19.5468C2.83237 19.7985 2.90062 20.0469 2.98331 20.2893L1.82919 21.3021C1.68613 21.4275 1.645 21.6292 1.72813 21.7983C1.939 22.228 2.17394 22.6251 2.42638 22.9785C2.53575 23.1319 2.73613 23.198 2.92031 23.1408L4.40213 22.6785C4.57931 22.8709 4.76788 23.0535 4.9665 23.2251L4.48919 24.6604C4.43012 24.838 4.49794 25.0325 4.65675 25.1389C5.02163 25.3834 5.43156 25.611 5.87519 25.8152C6.05019 25.8957 6.258 25.8555 6.3875 25.7173L7.43312 24.5994C7.68381 24.6791 7.94019 24.7456 8.20006 24.7977L8.52906 26.2746C8.56975 26.4572 8.72944 26.5924 8.9215 26.6077C9.15425 26.6255 9.38744 26.6416 9.625 26.6416C9.86256 26.6416 10.0957 26.6255 10.3285 26.6077C10.521 26.5928 10.6807 26.4576 10.7214 26.2746L11.0504 24.7977C11.3102 24.7456 11.5671 24.6795 11.8173 24.5994L12.8629 25.7173C12.9929 25.8559 13.2011 25.8962 13.3753 25.8152C13.8189 25.611 14.2288 25.383 14.5937 25.1389C14.7525 25.0325 14.8203 24.838 14.7613 24.6604L14.2839 23.2251C14.4826 23.0535 14.6711 22.8709 14.8483 22.6789L16.3301 23.1412C16.5134 23.1989 16.7143 23.1328 16.8241 22.9789C17.0765 22.6255 17.3114 22.2284 17.5223 21.7987C17.6054 21.6296 17.5643 21.4279 17.4212 21.3025L16.2671 20.2897C16.3494 20.0469 16.4181 19.7985 16.4719 19.5468L17.9966 19.2281C18.1851 19.1887 18.3247 19.0341 18.3404 18.848C18.3584 18.6222 18.375 18.3963 18.375 18.1662C18.375 17.9361 18.3584 17.7102 18.34 17.4848C18.3247 17.2983 18.1851 17.1436 17.9961 17.1042L16.4714 16.7855C16.4176 16.5338 16.3494 16.2851 16.2667 16.0427L17.4208 15.0299C17.5639 14.9044 17.605 14.7027 17.5219 14.5336C17.311 14.1039 17.0756 13.7069 16.8236 13.3534C16.7138 13.1996 16.513 13.1335 16.3297 13.1911L14.8479 13.6535C14.6707 13.4611 14.4821 13.2784 14.2835 13.1068L14.7608 11.6715C14.8199 11.4939 14.7521 11.2994 14.5932 11.1931C14.2284 10.9486 13.8184 10.721 13.3748 10.5167C13.1998 10.4358 12.992 10.476 12.8625 10.6146L11.8169 11.7325C11.5662 11.6529 11.3098 11.5863 11.0499 11.5342L10.7209 10.0574C10.6802 9.87472 10.5206 9.73954 10.3285 9.72428C9.86256 9.68784 9.387 9.68869 8.92106 9.72428C8.72856 9.73911 8.56888 9.8743 8.52819 10.0574L8.19919 11.5342C7.93931 11.5863 7.68294 11.6524 7.43269 11.7325L6.38706 10.6146C6.25756 10.476 6.04975 10.4362 5.87475 10.5167C5.43113 10.721 5.02119 10.9486 4.65631 11.1931C4.4975 11.2994 4.42969 11.4939 4.48875 11.6715L4.96606 13.1068C4.76744 13.2784 4.57887 13.4611 4.40169 13.6535L2.92031 13.1911C2.73656 13.1335 2.53575 13.1996 2.42638 13.3534C2.17394 13.7069 1.939 14.1039 1.72813 14.5336C1.645 14.7027 1.68613 14.9044 1.82919 15.0299L2.98331 16.0427C2.90106 16.2855 2.83237 16.5338 2.77856 16.7855L1.25387 17.1042C1.06531 17.1436 0.92575 17.2983 0.91 17.4843C0.891625 17.7102 0.875 17.9361 0.875 18.1662C0.875 18.3963 0.891625 18.6222 0.91 18.8476V18.8476ZM1.75919 17.8657L3.24756 17.5543C3.42344 17.5174 3.55819 17.3801 3.58706 17.208C3.65269 16.8173 3.75856 16.4338 3.90163 16.0677C3.9655 15.905 3.91956 15.7206 3.78613 15.6037L2.66219 14.6171C2.76019 14.4353 2.86256 14.2612 2.96844 14.0963L4.41044 14.5463C4.58106 14.5993 4.76919 14.5463 4.88337 14.4116C5.1415 14.1056 5.43288 13.8238 5.74875 13.5734C5.88788 13.4632 5.94344 13.2814 5.88788 13.1153L5.42325 11.7185C5.59344 11.6156 5.77281 11.5164 5.96094 11.4219L6.97944 12.511C7.10063 12.6402 7.29137 12.6847 7.45894 12.6229C7.83606 12.4843 8.232 12.3817 8.63581 12.3182C8.81344 12.2902 8.95519 12.1597 8.99325 11.9893L9.31438 10.5477C9.52044 10.5371 9.73 10.5366 9.93519 10.5477L10.2568 11.9893C10.2948 12.1597 10.4366 12.2902 10.6142 12.3182C11.0176 12.3817 11.4135 12.4843 11.7915 12.6229C11.9586 12.6847 12.1494 12.6407 12.2706 12.511L13.2891 11.4223C13.4767 11.5172 13.6566 11.6164 13.8268 11.719L13.3621 13.1157C13.307 13.2818 13.3621 13.4632 13.5013 13.5738C13.8171 13.8238 14.1081 14.1061 14.3666 14.412C14.4808 14.5472 14.6685 14.601 14.8396 14.5468L16.2816 14.0967C16.3879 14.2616 16.4903 14.4353 16.5878 14.6171L15.4634 15.6037C15.33 15.7206 15.2841 15.905 15.3479 16.0681C15.491 16.4334 15.5969 16.8169 15.6625 17.208C15.6914 17.3801 15.8261 17.5174 16.002 17.5543L17.4904 17.8653C17.4961 17.9649 17.5 18.0653 17.5 18.1662C17.5 18.267 17.4965 18.3675 17.4908 18.4666L16.0024 18.7781C15.8266 18.815 15.6918 18.9523 15.6629 19.1243C15.5973 19.515 15.4914 19.8986 15.3484 20.2647C15.2845 20.4274 15.3304 20.6118 15.4639 20.7287L16.5878 21.7152C16.4898 21.897 16.3874 22.0712 16.2816 22.2361L14.8396 21.786C14.6676 21.7318 14.4808 21.7856 14.3666 21.9208C14.1089 22.2259 13.8176 22.5081 13.5013 22.759C13.3621 22.8692 13.307 23.051 13.3621 23.2167L13.8268 24.6134C13.6566 24.7164 13.4772 24.8155 13.2895 24.91L12.271 23.821C12.1503 23.6917 11.9599 23.6481 11.7915 23.7091C11.4144 23.8477 11.0184 23.9502 10.6146 24.0138C10.437 24.0417 10.2952 24.1723 10.2572 24.3426L9.93606 25.7843C9.73 25.7949 9.52044 25.7953 9.31525 25.7843L8.99369 24.3426C8.95562 24.1723 8.81387 24.0417 8.63625 24.0138C8.23287 23.9502 7.83694 23.8477 7.45894 23.7091C7.29137 23.6472 7.10063 23.6913 6.97988 23.821L5.96138 24.9096C5.77369 24.8147 5.59388 24.7155 5.42369 24.613L5.88831 23.2162C5.94344 23.0501 5.88831 22.8687 5.74919 22.7581C5.43331 22.5081 5.14238 22.2259 4.88381 21.9199C4.76963 21.7847 4.5815 21.7314 4.41087 21.7852L2.96887 22.2352C2.86256 22.0704 2.76019 21.8966 2.66262 21.7144L3.787 20.7279C3.92044 20.6109 3.96638 20.4266 3.9025 20.2634C3.75944 19.8981 3.65356 19.5146 3.58794 19.1235C3.55906 18.9514 3.42431 18.8141 3.24844 18.7773L1.75919 18.4671C1.75394 18.3675 1.75 18.267 1.75 18.1662C1.75 18.0653 1.7535 17.9649 1.75919 17.8657V17.8657Z" fill="#606C38"/>
<path d="M23.7208 7.24796C23.8853 7.19796 24.0043 7.05854 24.024 6.89242C24.0502 6.67841 24.0625 6.48475 24.0625 6.30084C24.0625 6.11692 24.0502 5.92326 24.0244 5.70925C24.0047 5.54314 23.8858 5.40372 23.7213 5.35371L22.5081 4.98461C22.4717 4.88841 22.4315 4.79391 22.3873 4.70153L22.9753 3.61033C23.0549 3.46243 23.0374 3.28275 22.9307 3.15138C22.6774 2.84119 22.386 2.55896 22.0649 2.31275C21.9292 2.20892 21.7438 2.1924 21.5911 2.2691L20.4636 2.83864C20.3682 2.79627 20.2707 2.75728 20.1714 2.72211L19.7903 1.547C19.7387 1.38766 19.5947 1.27239 19.4232 1.25332C18.9805 1.20332 18.6441 1.20332 18.2013 1.25332C18.0298 1.27239 17.8859 1.38766 17.8342 1.547L17.4532 2.72211C17.3539 2.75728 17.2563 2.79627 17.1609 2.83907L16.0344 2.26952C15.8817 2.19282 15.6966 2.20935 15.5606 2.31275C15.2403 2.55811 14.9489 2.84034 14.6948 3.15138C14.5876 3.28275 14.5701 3.46201 14.6497 3.61033L15.2372 4.70153C15.1935 4.79391 15.1533 4.88841 15.1169 4.98461L13.9038 5.35371C13.7393 5.40372 13.6202 5.54314 13.6006 5.70925C13.5747 5.92326 13.5625 6.11692 13.5625 6.30084C13.5625 6.48475 13.5747 6.67841 13.6006 6.89242C13.6202 7.05854 13.7393 7.19796 13.9038 7.24796L15.1169 7.61706C15.1533 7.71326 15.1935 7.80776 15.2377 7.90014L14.6497 8.99135C14.5701 9.13924 14.5876 9.31892 14.6943 9.45029C14.9476 9.76049 15.239 10.0427 15.5601 10.2889C15.6953 10.3927 15.8812 10.4093 16.0339 10.3326L17.1605 9.76345C17.2559 9.80583 17.3534 9.84482 17.4527 9.87999L17.8338 11.0551C17.8854 11.2144 18.0294 11.3297 18.2009 11.3488C18.4227 11.3742 18.6226 11.3861 18.8125 11.3861C19.0024 11.3861 19.2023 11.3742 19.4232 11.3492C19.5947 11.3301 19.7387 11.2149 19.7903 11.0555L20.1714 9.88041C20.2707 9.84524 20.3682 9.80625 20.4636 9.76345L21.5902 10.333C21.7429 10.4101 21.9284 10.3936 22.064 10.2898C22.3842 10.0444 22.6756 9.76218 22.9298 9.45113C23.037 9.31977 23.0545 9.14051 22.9749 8.99219L22.3869 7.90099C22.4311 7.80861 22.4713 7.71411 22.5076 7.61791L23.7208 7.24796ZM22.0321 6.87335C21.8938 6.91572 21.7862 7.02124 21.7442 7.156C21.6847 7.34755 21.6059 7.53189 21.5106 7.70436C21.4419 7.8281 21.4406 7.97684 21.5079 8.10101L22.0631 9.13161C21.9594 9.24306 21.8496 9.34943 21.735 9.44944L20.671 8.91168C20.5424 8.84642 20.3888 8.84811 20.2615 8.91422C20.0834 9.0066 19.8931 9.08288 19.6954 9.14051C19.5567 9.18077 19.4473 9.28544 19.4036 9.41935L19.0431 10.5313C18.8834 10.5406 18.7421 10.5406 18.5819 10.5313L18.2214 9.41935C18.1777 9.28544 18.0687 9.18119 17.9296 9.14051C17.7314 9.08288 17.5411 9.0066 17.3639 8.91422C17.2362 8.84769 17.0826 8.84642 16.954 8.91168L15.89 9.44944C15.7749 9.34901 15.6651 9.24264 15.5619 9.13161L16.1171 8.10101C16.184 7.97684 16.1831 7.82768 16.1144 7.70436C16.0191 7.53189 15.9403 7.34755 15.8808 7.156C15.8392 7.02167 15.7312 6.91572 15.5929 6.87335L14.4449 6.52416C14.4397 6.44661 14.4375 6.37245 14.4375 6.30084C14.4375 6.22922 14.4397 6.15506 14.4449 6.07751L15.5929 5.72832C15.7312 5.68595 15.8388 5.58043 15.8808 5.44567C15.9403 5.2537 16.0191 5.06936 16.1144 4.89774C16.1831 4.774 16.1844 4.62525 16.1171 4.50067L15.5619 3.47006C15.6656 3.35861 15.7754 3.25224 15.89 3.15223L16.954 3.69C17.0822 3.75483 17.2362 3.75356 17.3635 3.68745C17.5416 3.59507 17.7319 3.51879 17.9296 3.46116C18.0683 3.4209 18.1777 3.31623 18.2214 3.18232L18.5819 2.07035C18.7416 2.06103 18.8829 2.06103 19.0431 2.07035L19.4036 3.18232C19.4473 3.31623 19.5563 3.42048 19.6954 3.46116C19.8936 3.51879 20.0839 3.59507 20.2611 3.68745C20.3888 3.75398 20.5424 3.75526 20.671 3.69L21.735 3.15223C21.8501 3.25267 21.9599 3.35903 22.0631 3.47006L21.5079 4.50067C21.441 4.62483 21.4419 4.774 21.5106 4.89731C21.6059 5.06979 21.6847 5.25413 21.7442 5.44567C21.7858 5.58001 21.8938 5.68595 22.0321 5.72832L23.1801 6.07751C23.1853 6.15506 23.1875 6.22922 23.1875 6.30084C23.1875 6.37245 23.1853 6.44661 23.1801 6.52416L22.0321 6.87335Z" fill="#606C38"/>
<path d="M26.8021 15.1851L26.0505 14.9266C26.0076 14.8084 25.9586 14.6927 25.9031 14.5804L26.2447 13.8833C26.3161 13.7384 26.2964 13.5672 26.194 13.4409C25.9753 13.1701 25.7224 12.9247 25.4419 12.712C25.3111 12.6128 25.1335 12.5942 24.9848 12.6629L24.2646 12.9938C24.1491 12.9404 24.0297 12.8925 23.9076 12.8514L23.6403 12.1234C23.5847 11.9721 23.4452 11.864 23.2807 11.8446C22.8909 11.7992 22.6087 11.7992 22.2189 11.8446C22.0544 11.8636 21.9148 11.9717 21.8593 12.1234L21.5924 12.8514C21.4703 12.893 21.3509 12.9404 21.2349 12.9942L20.5152 12.6633C20.3665 12.5946 20.1893 12.6137 20.0585 12.7124C19.7789 12.9243 19.5256 13.1693 19.306 13.4409C19.2041 13.5672 19.1844 13.7388 19.2553 13.8837L19.5969 14.5813C19.5418 14.6931 19.4924 14.8088 19.4499 14.927L18.6983 15.186C18.5421 15.2398 18.4306 15.375 18.4104 15.5343C18.3864 15.722 18.375 15.8903 18.375 16.0479C18.375 16.2056 18.3864 16.3734 18.41 16.5619C18.4297 16.7213 18.5412 16.8565 18.6979 16.9103L19.4495 17.1688C19.4924 17.287 19.5414 17.4027 19.5969 17.515L19.2553 18.2121C19.1839 18.357 19.2036 18.5282 19.306 18.6545C19.5247 18.9253 19.7776 19.1707 20.0581 19.3834C20.1884 19.4821 20.3661 19.5012 20.5152 19.4326L21.2354 19.1016C21.3509 19.155 21.4703 19.2029 21.5924 19.244L21.8597 19.972C21.9153 20.1233 22.0548 20.2314 22.2193 20.2509C22.414 20.2746 22.5872 20.2856 22.75 20.2856C22.9128 20.2856 23.086 20.2746 23.2807 20.2517C23.4452 20.2326 23.5847 20.1246 23.6403 19.9729L23.9072 19.2448C24.0293 19.2033 24.1487 19.1558 24.2646 19.102L24.9843 19.433C25.1335 19.5021 25.3111 19.4834 25.4411 19.3838C25.7206 19.1719 25.9739 18.927 26.1936 18.6554C26.2955 18.5291 26.3152 18.3575 26.2443 18.2125L25.9026 17.515C25.9578 17.4031 26.0072 17.2874 26.0496 17.1692L26.8012 16.9103C26.9574 16.8565 27.069 16.7213 27.0891 16.5619C27.1136 16.3734 27.125 16.2056 27.125 16.0479C27.125 15.8903 27.1136 15.7225 27.09 15.5339C27.0703 15.3741 26.9588 15.2394 26.8021 15.1851V15.1851ZM26.2456 16.2026L25.5522 16.4412C25.4179 16.4874 25.3151 16.5942 25.277 16.7272C25.2197 16.9285 25.1379 17.1205 25.0342 17.298C24.9642 17.418 24.9589 17.5637 25.0197 17.6883L25.3339 18.3295C25.2612 18.4066 25.1851 18.4803 25.1059 18.5503L24.444 18.246C24.3163 18.1871 24.1653 18.1922 24.0411 18.26C23.8573 18.3608 23.6591 18.4397 23.4522 18.4952C23.3148 18.532 23.2046 18.6316 23.1564 18.7617L22.9101 19.4334C22.8043 19.4389 22.6966 19.4389 22.5908 19.4334L22.3444 18.7617C22.2968 18.6316 22.1865 18.532 22.0491 18.4952C21.8413 18.4397 21.6431 18.3604 21.4598 18.26C21.336 18.1926 21.1859 18.1875 21.0569 18.246L20.3949 18.5503C20.3153 18.4799 20.2392 18.4062 20.167 18.3295L20.4811 17.6883C20.5424 17.5637 20.5367 17.418 20.4667 17.298C20.3626 17.12 20.2812 16.9281 20.2239 16.7276C20.1858 16.5946 20.083 16.4878 19.9487 16.4412L19.2553 16.2026C19.2518 16.1513 19.25 16.1 19.25 16.0479C19.25 15.9958 19.2517 15.9441 19.2544 15.8932L19.9478 15.6542C20.0821 15.608 20.1849 15.5013 20.2226 15.3682C20.2803 15.1665 20.3621 14.9749 20.4658 14.7974C20.5358 14.6774 20.5411 14.5317 20.4803 14.4071L20.1661 13.7659C20.2388 13.6888 20.3149 13.6151 20.3941 13.5451L21.056 13.8494C21.1846 13.9087 21.3351 13.9036 21.4589 13.8354C21.6427 13.7346 21.8409 13.6557 22.0478 13.6002C22.1852 13.5634 22.2954 13.4638 22.3436 13.3337L22.5899 12.662C22.6957 12.6565 22.8034 12.6565 22.9092 12.662L23.1556 13.3337C23.2032 13.4638 23.3135 13.5634 23.4509 13.6002C23.6587 13.6557 23.8569 13.735 24.0402 13.8354C24.1644 13.9036 24.3145 13.9087 24.4431 13.8494L25.1051 13.5451C25.1847 13.6155 25.2608 13.6892 25.333 13.7659L25.0189 14.4071C24.9576 14.5317 24.9633 14.6774 25.0333 14.7974C25.1374 14.9754 25.2188 15.1673 25.2761 15.3678C25.3142 15.5008 25.417 15.6076 25.5513 15.6542L26.2447 15.8928C26.2482 15.9445 26.25 15.9958 26.25 16.0479C26.25 16.1 26.2483 16.1513 26.2456 16.2026V16.2026Z" fill="#606C38"/>
<path d="M9.625 22.8278C12.2784 22.8278 14.4375 20.7365 14.4375 18.1663C14.4375 15.5962 12.2784 13.5049 9.625 13.5049C6.97156 13.5049 4.8125 15.5962 4.8125 18.1663C4.8125 20.7365 6.97156 22.8278 9.625 22.8278ZM9.625 14.3524C11.7959 14.3524 13.5625 16.0636 13.5625 18.1663C13.5625 20.2691 11.7959 21.9803 9.625 21.9803C7.45413 21.9803 5.6875 20.2691 5.6875 18.1663C5.6875 16.0636 7.45413 14.3524 9.625 14.3524Z" fill="#606C38"/>
<path d="M0.884766 11.1142L1.55677 11.657C3.56008 9.3301 6.50052 7.99566 9.62514 7.99566C9.84783 7.99566 10.0701 8.00795 10.2923 8.02151L9.75333 8.54359L10.372 9.1428L11.6845 7.87149C11.8555 7.7058 11.8555 7.43798 11.6845 7.27228L10.372 6.00098L9.75333 6.60019L10.3479 7.17609C10.1073 7.16126 9.8662 7.14812 9.62514 7.14812C6.24064 7.14812 3.05477 8.59359 0.884766 11.1142V11.1142Z" fill="#606C38"/>
<path d="M18.8125 4.18262C17.6063 4.18262 16.625 5.13313 16.625 6.30146C16.625 7.46979 17.6063 8.42031 18.8125 8.42031C20.0187 8.42031 21 7.46979 21 6.30146C21 5.13313 20.0187 4.18262 18.8125 4.18262ZM18.8125 7.57277C18.0889 7.57277 17.5 7.00237 17.5 6.30146C17.5 5.60055 18.0889 5.03015 18.8125 5.03015C19.5361 5.03015 20.125 5.60055 20.125 6.30146C20.125 7.00237 19.5361 7.57277 18.8125 7.57277Z" fill="#606C38"/>
<path d="M22.75 14.3525C21.7849 14.3525 21 15.1128 21 16.0476C21 16.9825 21.7849 17.7427 22.75 17.7427C23.7151 17.7427 24.5 16.9825 24.5 16.0476C24.5 15.1128 23.7151 14.3525 22.75 14.3525ZM22.75 16.8952C22.2674 16.8952 21.875 16.515 21.875 16.0476C21.875 15.5802 22.2674 15.2001 22.75 15.2001C23.2326 15.2001 23.625 15.5802 23.625 16.0476C23.625 16.515 23.2326 16.8952 22.75 16.8952Z" fill="#606C38"/>
<path d="M26.7737 2.49576L24.5862 2.07199C24.3482 2.02537 24.1185 2.17496 24.0713 2.40422L23.6338 4.52307L24.4917 4.68961L24.7275 3.54882C25.1515 4.40314 25.3755 5.34476 25.3755 6.3012C25.3755 7.76236 24.8776 9.13622 23.9361 10.274L24.619 10.8042C25.6712 9.53244 26.2505 7.93356 26.2505 6.3012C26.2505 5.19135 25.9858 4.09718 25.4822 3.1098L26.6022 3.32677L26.7737 2.49576Z" fill="#606C38"/>
</svg>
