<svg width="48" height="48" viewBox="0 0 48 48" fill="none" xmlns="http://www.w3.org/2000/svg">
<g clip-path="url(#clip0)">
<path d="M11.4376 29.2168C11.4376 23.1269 18.8081 12.6463 24.1767 5.8313C25.2496 4.46939 26.706 3.63605 28.2491 3.32658C25.3282 1.05455 20.9684 1.45111 18.5517 4.5188C13.1831 11.3338 5.81256 21.8144 5.81256 27.9043C5.81256 37.5363 13.2562 45.4217 22.7184 46.0797C16.0922 43.357 11.4376 36.8332 11.4376 29.2168Z" fill="#BC6C25"/>
<path d="M24.0001 48C18.6334 48 13.5922 45.9091 9.80519 42.1124C6.02144 38.319 3.93756 33.2731 3.93756 27.9042C3.93756 24.8093 5.44844 20.7605 8.55672 15.526C10.7162 11.8893 13.5835 7.7955 17.0788 3.3585C18.7601 1.22409 21.2829 0 24.0001 0C26.7172 0 29.24 1.22409 30.9213 3.35841C34.4166 7.79541 37.2839 11.8892 39.4434 15.5259C42.5517 20.7604 44.0626 24.8093 44.0626 27.9042C44.0626 33.2732 41.9787 38.3191 38.1949 42.1125C34.4079 45.9091 29.3667 48 24.0001 48ZM24.0001 3.75C22.4393 3.75 20.9903 4.45312 20.0246 5.67891C12.1842 15.6317 7.68756 23.7324 7.68756 27.9042C7.68756 36.9172 15.0053 44.25 24.0001 44.25C32.9948 44.25 40.3126 36.9172 40.3126 27.9042C40.3126 23.7325 35.8159 15.6318 27.9755 5.679C27.0098 4.45312 25.5608 3.75 24.0001 3.75Z" fill="#BC6C25"/>
<path d="M18.9376 20.9062C20.232 20.9062 21.2813 21.9556 21.2813 23.25C21.2813 24.5444 20.232 25.5938 18.9376 25.5938C17.6432 25.5938 16.5938 24.5444 16.5938 23.25C16.5938 21.9556 17.6432 20.9062 18.9376 20.9062ZM26.8126 33.8438C26.8126 35.1382 27.8619 36.1875 29.1563 36.1875C30.4507 36.1875 31.5001 35.1382 31.5001 33.8438C31.5001 32.5493 30.4507 31.5 29.1563 31.5C27.8619 31.5 26.8126 32.5493 26.8126 33.8438ZM19.9157 35.6106L30.9782 24.0793C31.695 23.332 31.6704 22.1451 30.9231 21.4282C30.1758 20.7113 28.9888 20.736 28.2721 21.4833L17.2096 33.0145C16.4927 33.7618 16.5173 34.9488 17.2646 35.6656C17.6281 36.0144 18.0955 36.1875 18.5624 36.1875C19.0552 36.1875 19.5475 35.9943 19.9157 35.6106Z" fill="#BC6C25"/>
</g>
<defs>
<clipPath id="clip0">
<rect width="48" height="48" fill="white"/>
</clipPath>
</defs>
</svg>
