<svg width="128" height="128" viewBox="0 0 128 128" fill="none" xmlns="http://www.w3.org/2000/svg">
<path d="M64.0001 3.6571C31.7343 3.6571 5.48584 29.9056 5.48584 62.1714C5.48584 94.4372 31.7343 120.686 64.0001 120.686C96.2659 120.686 122.514 94.4372 122.514 62.1714C122.514 29.9056 96.2659 3.6571 64.0001 3.6571Z" fill="#BC6C25"/>
<path d="M64.0002 5.48547C32.7426 5.48547 7.31445 30.9137 7.31445 62.1712C7.31445 93.4287 32.7426 118.857 64.0002 118.857C95.2577 118.857 120.686 93.4287 120.686 62.1712C120.686 30.9137 95.2577 5.48547 64.0002 5.48547Z" fill="#FEFAE0"/>
<path d="M84.2932 74.1043L84.2941 74.1038C84.2951 74.0922 84.724 71.4692 86.5161 70.4563C88.309 69.4437 90.7526 70.3633 90.7634 70.3672L90.7639 70.3669L90.7633 70.3673L90.7637 70.3671L90.7631 70.3674C90.7594 70.3892 90.3745 73.0809 88.5854 74.092C86.7889 75.1074 84.2932 74.1043 84.2932 74.1043Z" fill="#606C38"/>
<path d="M43.7024 75.3584L43.7017 75.3577C43.6903 75.3597 41.0456 75.6243 39.6034 74.1554C38.1613 72.6857 38.417 70.0873 38.4181 70.0759L38.4177 70.0755L38.4182 70.076L38.4179 70.0757L38.4183 70.0761C38.4403 70.074 41.1399 69.7492 42.5797 71.2157C44.0254 72.6882 43.7024 75.3584 43.7024 75.3584Z" fill="#606C38"/>
<g clip-path="url(#clip0)">
<path d="M37.6686 31.6445C37.6596 31.7498 34.0338 42.433 43.2919 51.6911C52.5501 60.9492 63.3381 57.3139 63.3381 57.3139C63.3381 57.3139 66.9734 46.5259 57.7153 37.2678C48.4571 28.0096 37.6686 31.6445 37.6686 31.6445Z" fill="#606C38" fill-opacity="0.8"/>
<path d="M98.1742 34.401C98.0634 34.3915 86.8108 30.5724 77.0592 40.324C67.3076 50.0756 71.1366 61.4386 71.1366 61.4386C71.1366 61.4386 82.4996 65.2677 92.2512 55.5161C102.003 45.7645 98.1742 34.401 98.1742 34.401Z" fill="#606C38"/>
<path d="M64.0605 34.786L64.0628 34.7836C64.0564 34.7474 63.2164 26.3556 67.8789 21.7797C72.5441 17.2036 80.7916 18.0151 80.828 18.0184L80.8292 18.0172L80.8275 18.0189L80.8286 18.0178L80.8272 18.0192C80.8338 18.089 81.8649 26.655 77.21 31.2233C72.5361 35.8106 64.0605 34.786 64.0605 34.786Z" fill="#606C38" fill-opacity="0.5"/>
<path d="M64.0001 70.3558C59.2473 70.3558 55.1304 73.0666 53.1027 77.0246C51.9074 76.8477 50.6847 76.7549 49.4404 76.7549C38.0727 76.7549 28.492 84.4038 25.5625 94.8354H102.438C99.5081 84.4037 89.9276 76.7549 78.5598 76.7549C77.3153 76.7549 76.0926 76.8477 74.8974 77.0246C72.8698 73.0666 68.7529 70.3558 64.0001 70.3558Z" fill="#283618"/>
<path d="M103.942 94.4141C102.418 88.9887 99.106 84.099 94.6154 80.6457C91.8791 78.5417 88.5823 76.8037 85.3334 75.9117C85.4701 74.2994 85.1556 74.3117 85.1556 74.3117C86.0185 74.3117 86.6133 73.2045 87.4668 72.7117C86.9334 72.5339 87.289 72.5339 86.7556 72.7117C85.1535 73.862 86.0445 73.4228 84.4445 73.7784C83.2934 72.4685 84.1686 71.6857 82.2919 71.6857C81.4291 71.6857 82.8445 72.0006 83.0223 72.8895C83.0223 73.7525 83.0223 73.6006 83.2001 74.3117C83.2001 74.4895 83.5556 75.3437 82.2919 75.4534C81.0663 75.2812 79.8203 75.1935 78.5597 75.1935C77.622 75.1935 76.6781 75.2439 75.7419 75.3437C73.5612 71.807 69.9456 69.4692 65.8626 68.9198C65.8729 68.9101 65.8839 68.9015 65.894 68.8915L71.6019 63.1837C72.6247 63.4246 74.3972 63.7427 76.6303 63.7427C77.112 63.7427 77.6158 63.7279 78.1373 63.6943C82.1095 63.4382 87.9742 62.0034 93.3558 56.6218C98.7372 51.2402 100.172 45.3755 100.428 41.4032C100.707 37.0855 99.6979 34.031 99.6547 33.903C99.4836 33.3953 99.0674 33.0167 98.5594 32.8875L98.5427 32.8827C96.881 32.398 94.8805 32.1188 92.9094 32.0963C92.9033 32.0963 92.8974 32.0963 92.8913 32.0963C92.0366 32.0963 91.3389 32.7841 91.3293 33.6409C91.3194 34.5038 92.0108 35.2113 92.8738 35.2213C94.5886 35.2408 95.9724 35.4705 96.8985 35.6835C97.139 36.7433 97.4815 38.7924 97.3013 41.3324C96.9504 46.2783 94.8794 50.679 91.1461 54.4121C87.4128 58.1452 83.0122 60.2162 78.0666 60.567C76.6228 60.6695 75.3383 60.6027 74.3034 60.4821L85.761 49.0246C86.3711 48.4144 86.3711 47.425 85.761 46.8147C85.1506 46.2046 84.1616 46.2046 83.5511 46.8147L72.0939 58.2719C71.6691 54.5746 71.9472 47.6461 78.1636 41.4297C79.3822 40.2111 80.6925 39.1549 82.0581 38.2906C82.7872 37.8291 83.0042 36.8639 82.5427 36.1347C82.0814 35.4056 81.1163 35.1886 80.3867 35.65C78.8269 36.6375 77.3353 37.8386 75.9539 39.22C70.5725 44.6016 69.1375 50.4663 68.8815 54.4385C68.6922 57.3776 69.0992 59.7301 69.3922 60.9738L65.5623 64.8034V36.4427C65.7426 36.4469 65.9334 36.4494 66.1362 36.4494C69.1992 36.4494 74.6806 35.8953 78.3038 32.3389C83.1742 27.5592 82.5214 19.2131 82.3886 17.9303C82.3677 17.5603 82.216 17.1962 81.9331 16.9134C81.6549 16.6351 81.2974 16.4839 80.9331 16.4597C80.1889 16.3947 71.7606 15.7836 66.784 20.6651C62.3026 25.0634 62.3504 32.3169 62.475 34.4486C62.4509 34.5575 62.4373 34.6703 62.4373 34.7864V40.7571C61.5122 39.2244 60.3303 37.6741 58.8198 36.1636C53.6929 31.0369 48.1053 29.6698 44.3204 29.4258C40.2057 29.1605 37.2916 30.1234 37.1694 30.1645C36.6624 30.3353 36.284 30.7508 36.1544 31.2583L36.1504 31.2724C35.5662 33.2744 33.1113 43.7211 42.1866 52.7968C47.3135 57.9235 52.901 59.2904 56.6859 59.5343C57.1826 59.5663 57.6618 59.5804 58.1207 59.5804C59.9346 59.5804 61.4306 59.3599 62.4375 59.1524V68.8837C58.2318 69.3565 54.4918 71.7207 52.2581 75.3439C51.3218 75.244 50.3779 75.1937 49.4403 75.1937C48.1796 75.1937 46.9337 75.2814 45.7081 75.4535C46.1107 74.1768 46.2223 74.3117 47.1112 73.9561C48.0001 73.4228 47.8223 73.7525 47.8223 72.8895C47.4668 72.8895 47.289 72.8895 46.4001 73.0673C45.3334 73.6006 44.4445 74.6673 43.9112 75.0228C43.9112 75.0228 43.7334 75.3784 43.2001 74.4895C42.489 74.3117 41.9556 72.8895 41.4223 73.4228C41.9556 73.9561 42.1334 74.6673 42.6668 74.845C42.6668 75.9117 42.6668 75.5561 42.424 76.1314C39.1752 77.0234 36.1208 78.5418 33.3846 80.6459C28.894 84.0992 25.5818 88.9889 24.0582 94.4142C23.926 94.885 24.0219 95.3906 24.3172 95.7805C24.6125 96.1703 25.0735 96.3992 25.5625 96.3992H102.438C102.927 96.3992 103.388 96.1703 103.683 95.7805C103.979 95.3906 104.074 94.8848 103.942 94.4141ZM68.9726 22.8956C72.0108 19.9155 76.9877 19.5294 79.3553 19.5287C79.4202 21.9583 79.1608 27.1195 76.1148 30.1088C73.8283 32.353 70.3889 33.0647 67.8009 33.2564L72.5073 28.55C73.1175 27.9398 73.1175 26.9505 72.5073 26.3403C71.897 25.7302 70.908 25.7302 70.2975 26.3403L65.6703 30.9677C65.9236 28.4283 66.7131 25.1131 68.9726 22.8956ZM44.3963 50.5868C37.396 43.5864 38.3218 35.7275 38.9523 32.922C39.967 32.6956 41.883 32.3839 44.249 32.5531C48.9224 32.8864 53.0812 34.8447 56.6098 38.3733C60.1384 41.9019 62.0965 46.0607 62.4297 50.7338C62.4328 50.7761 62.4343 50.8172 62.4372 50.8593V53.3268C62.4189 53.6104 62.3953 53.8804 62.3679 54.1354L53.2489 45.0161C52.6387 44.4061 51.6493 44.406 51.039 45.0161C50.4288 45.6263 50.4288 46.6157 51.039 47.226L60.1587 56.3457C56.6279 56.7199 50.187 56.3773 44.3963 50.5868ZM36.3794 93.2739C37.8187 90.0561 40.3998 87.4731 43.6888 86.0278C44.4788 85.6806 44.8379 84.7587 44.4907 83.9687C44.1434 83.1787 43.2213 82.8197 42.4315 83.167C37.9988 85.115 34.6213 88.7603 33.0157 93.2741H27.7224C31.1197 84.3725 39.7705 78.3186 49.4399 78.3186C50.5845 78.3186 51.7398 78.4036 52.8737 78.5715C53.5362 78.6693 54.1876 78.3345 54.4931 77.7382C56.3317 74.1492 59.9743 71.9195 63.9998 71.9195C68.0253 71.9195 71.668 74.1492 73.5066 77.7382C73.8122 78.3345 74.4644 78.6695 75.1259 78.5715C76.2598 78.4037 77.415 78.3186 78.5597 78.3186C88.2291 78.3186 96.8799 84.3725 100.277 93.2741L36.3794 93.2739Z" fill="black"/>
</g>
<path d="M71.289 82.4888C85.3178 81.0381 93.1557 90.311 93.5112 92.7999C103.645 92.7999 89.7779 92.7999 93.689 92.7999H99.7335C98.8446 91.7333 99.0223 88.3555 91.7335 82.8444C89.9557 82.4888 89.0668 78.2221 73.7778 78.7555C70.0446 71.111 61.1557 71.6444 59.8799 72.8888C66.7553 75.3172 66.8446 78.0444 71.289 82.4888Z" fill="#606C38"/>
<defs>
<clipPath id="clip0">
<rect width="80" height="80" fill="white" transform="translate(24.0002 16.3998)"/>
</clipPath>
</defs>
</svg>
