<svg width="48" height="48" viewBox="0 0 48 48" fill="none" xmlns="http://www.w3.org/2000/svg">
<g clip-path="url(#clip0)">
<path d="M27.1715 14.7338C27.1715 5.33766 21.7897 0 13.8494 0C5.90908 0 0.527344 5.29358 0.527344 14.7338C0.527344 24.1738 5.90908 29.7321 13.8495 29.7321C21.7899 29.7321 27.1715 24.1739 27.1715 14.7338ZM8.2912 14.7338C8.2912 9.52841 10.4086 6.52872 13.8494 6.52872C17.2902 6.52872 19.4077 9.52849 19.4077 14.7338C19.4077 19.939 17.2902 23.2034 13.8494 23.2034C10.4086 23.2034 8.2912 19.939 8.2912 14.7338Z" fill="#BC6C25"/>
<path d="M47.4727 43.2947V43.2921C47.4727 42.3835 46.7369 41.6466 45.8284 41.6451L38.4804 41.633C42.2741 37.751 46.1492 33.178 46.1492 28.6785C46.1492 23.1203 42.1791 19.5029 36.5326 19.5029C32.9707 19.5029 30.5155 20.5445 28.0487 22.7953C27.3566 23.4268 27.3359 24.5105 27.9983 25.1731L29.7513 26.9261C30.3661 27.5408 31.3506 27.5691 32.0049 26.9968C33.019 26.1098 34.1304 25.4141 35.4739 25.4141C37.503 25.4141 38.9146 26.6051 38.9146 29.1196C38.9146 32.811 34.0698 37.3377 27.7127 43.1874C27.3737 43.4993 27.1807 43.939 27.1807 44.3996V46.3529C27.1807 47.2626 27.918 47.9999 28.8276 47.9999H45.8257C46.7353 47.9999 47.4727 47.2626 47.4727 46.3529V43.2947Z" fill="#BC6C25"/>
</g>
<defs>
<clipPath id="clip0">
<rect width="48" height="48" fill="white"/>
</clipPath>
</defs>
</svg>
