<svg width="48" height="48" viewBox="0 0 48 48" fill="none" xmlns="http://www.w3.org/2000/svg">
<g clip-path="url(#clip0)">
<path d="M32.6988 22.5194L32.6995 22.5189L20.9355 2.28652C19.8896 0.487828 17.2916 0.487828 16.2458 2.28652L4.43858 22.5936C4.4338 22.602 4.42883 22.6102 4.42405 22.6185L4.41843 22.6282L4.41861 22.6283C2.97702 25.1425 2.18493 28.0767 2.27193 31.2022C2.5139 39.9034 9.65558 46.94 18.3593 47.0606C27.4815 47.1869 34.9159 39.8301 34.9159 30.737C34.9159 27.7405 34.1077 24.933 32.6988 22.5194Z" fill="#BC6C25"/>
<path d="M45.1272 16.7621C44.889 17.4334 44.2458 17.8751 43.5331 17.8751H29.9993L25.1395 9.5179C26.6565 5.42693 30.62 2.52406 35.2528 2.58593C40.9668 2.66281 45.6363 7.3144 45.7329 13.0284C45.7554 14.3392 45.5397 15.5975 45.1272 16.7621Z" fill="#FEFAE0"/>
<path d="M37.0254 16.343L37.0257 16.3432L38.9315 10.8779C39.0119 10.6471 38.7495 10.4485 38.5494 10.5887L33.8076 13.9077C32.6927 14.6697 32.5152 16.313 33.5188 17.2516C34.6471 18.3067 36.5545 17.8231 37.0254 16.343Z" fill="#FEFAE0"/>
<path d="M26.5974 32.4212C27.1153 32.4212 27.535 32.0013 27.535 31.4835V22.4102C27.535 21.8925 27.1152 21.4727 26.5974 21.4727C26.0795 21.4727 25.6597 21.8925 25.6597 22.4102V25.8536H21.2562V22.4102C21.2562 21.8925 20.8364 21.4727 20.3186 21.4727C19.8007 21.4727 19.3809 21.8925 19.3809 22.4102V31.4835C19.3809 32.0012 19.8007 32.4212 20.3186 32.4212C20.8365 32.4212 21.2562 32.0013 21.2562 31.4835V27.7289H25.6597V31.4835C25.6597 32.0013 26.0795 32.4212 26.5974 32.4212Z" fill="#FEFAE0"/>
<path d="M13.1678 24.4531C12.3481 24.4531 11.5851 24.6983 10.9466 25.118C10.8297 24.7332 10.4725 24.4531 10.0496 24.4531C9.53169 24.4531 9.11188 24.8729 9.11188 25.3907V35.5385C9.11188 36.0563 9.53169 36.4761 10.0496 36.4761C10.5674 36.4761 10.9872 36.0563 10.9872 35.5385V31.9262C11.6174 32.3298 12.3655 32.565 13.1678 32.565C15.4043 32.565 17.2238 30.7455 17.2238 28.5091C17.2238 26.2726 15.4043 24.4531 13.1678 24.4531ZM13.1678 30.6897C11.9653 30.6897 10.9872 29.7115 10.9872 28.509C10.9872 27.3066 11.9654 26.3284 13.1678 26.3284C14.3702 26.3284 15.3485 27.3066 15.3485 28.509C15.3485 29.7115 14.3702 30.6897 13.1678 30.6897Z" fill="#FEFAE0"/>
<path d="M46.6704 13.0127C46.5654 6.80419 41.3185 1.64747 35.1107 1.64747C31.7991 1.64747 28.7117 3.06937 26.5582 5.42644C26.5567 5.42794 26.5551 5.42906 26.5537 5.43056C26.5262 5.45803 26.5014 5.48719 26.4781 5.517C25.9379 6.12075 25.4583 6.78394 25.051 7.49925L21.7462 1.81547C21.0851 0.678562 19.9056 0 18.5906 0C17.2758 0 16.0962 0.678656 15.4353 1.81537L3.62804 22.1226L3.62223 22.1324L3.60938 22.1544C3.60413 22.1634 3.59907 22.1723 3.5941 22.1814C2.02754 24.9219 1.24623 28.0498 1.33463 31.2285C1.58766 40.3259 9.24601 47.8723 18.3463 47.9982C26.2029 48.1101 33.3362 42.6847 35.3049 35.0698C35.4345 34.5685 36 29.5 35.5 29.5C35 29 34.1593 30 33.4893 34.6004C31.7337 41.3912 25.3751 46.2181 18.3723 46.1231C10.2653 46.0109 3.43473 39.2827 3.20926 31.1763C3.13023 28.3352 3.82969 25.5407 5.2321 23.0949C5.23444 23.0909 5.23669 23.0868 5.23894 23.0827L5.24054 23.0801L17.0565 2.75794C17.3779 2.20519 17.9514 1.87519 18.5907 1.87519C19.23 1.87519 19.8036 2.20519 20.125 2.75794L24.3246 9.98053C24.3262 9.98344 24.3274 9.98644 24.3291 9.98934L29.1889 18.3466L29.1898 18.348L31.8686 22.9552C31.8752 22.9676 31.882 22.98 31.8892 22.9922C32.5959 24.2028 33.1332 25.508 33.4863 26.8713C34.5 30 34.6951 30.5 35.5 29.5C36 30 35.4315 26.9025 35.3017 26.4012C34.9089 24.8847 34.3129 23.432 33.5297 22.0829C33.5235 22.0712 33.517 22.0595 33.5103 22.0478L31.6294 18.813H43.5333C44.6466 18.813 45.6423 18.1149 46.0109 17.0759C46.4723 15.7732 46.6943 14.4059 46.6704 13.0127ZM33.9402 15.101C34.049 14.9117 34.1959 14.7877 34.368 14.6597L37.3467 12.5747L36.1499 16.007C35.8381 16.8195 34.867 17.228 34.1593 16.5664C33.7592 16.1923 33.667 15.576 33.9402 15.101ZM43.5331 16.9375H37.7996C37.8405 16.8436 37.8776 16.7482 37.9111 16.6516L39.8168 11.1862C39.9873 10.6972 39.8244 10.1587 39.4115 9.84619C38.9986 9.53381 38.4361 9.52322 38.0116 9.82022L33.2699 13.1393C32.0583 13.9847 31.5764 15.5698 32.1747 16.9376H30.5389L26.1791 9.4395C26.475 8.73994 26.8491 8.08781 27.2874 7.49034L28.026 8.229C28.2091 8.412 28.4491 8.50359 28.689 8.50359C28.9289 8.50359 29.1689 8.412 29.352 8.229C29.7181 7.86281 29.7181 7.26909 29.352 6.90291L28.5401 6.09103C30.1067 4.64934 32.1314 3.73519 34.3151 3.5565V5.06231C34.3151 5.58009 34.7349 5.99991 35.2528 5.99991C35.7707 5.99991 36.1904 5.58009 36.1904 5.06231V3.58312C38.2272 3.81141 40.1313 4.68234 41.6594 6.09187L40.8483 6.903C40.4822 7.26919 40.4822 7.86291 40.8483 8.22909C41.0314 8.41209 41.2714 8.50369 41.5113 8.50369C41.7513 8.50369 41.9912 8.41209 42.1743 8.22909L42.9135 7.48987C44.0614 9.04472 44.7158 10.8961 44.7893 12.8411H43.8109C43.293 12.8411 42.8733 13.2609 42.8733 13.7787C42.8733 14.2965 43.2931 14.7163 43.8109 14.7163H44.6799C44.5881 15.3056 44.443 15.8849 44.2432 16.4492C44.1395 16.7412 43.8541 16.9375 43.5331 16.9375Z" fill="#BC6C25"/>
</g>
<defs>
<clipPath id="clip0">
<rect width="48" height="48" fill="white"/>
</clipPath>
</defs>
</svg>
