<svg width="48" height="48" viewBox="0 0 48 48" fill="none" xmlns="http://www.w3.org/2000/svg">
<g clip-path="url(#clip0)">
<path d="M23.9203 4.12305C12.9866 4.12305 4.12274 12.9866 4.12274 23.9203C4.12274 34.8541 12.9866 43.7179 23.9203 43.7179C34.8541 43.7179 43.7176 34.8541 43.7176 23.9203C43.697 12.9948 34.8458 4.14367 23.9203 4.12305Z" fill="white"/>
<path d="M37.3216 38.4862C29.7456 45.4591 18.0897 45.4591 10.5137 38.4862C18.0897 31.5137 29.7456 31.5137 37.3216 38.4862Z" fill="#BC6C25"/>
<path d="M25.5457 26.7373C24.2274 27.955 22.0036 27.1028 21.1035 25.5459C20.2034 23.9893 20.574 21.6383 22.2949 21.1036L36.305 16.7725L25.5457 26.7373Z" fill="#BC6C25"/>
<path d="M23.9203 -0.0810547C10.6647 -0.0810547 -0.0812378 10.6649 -0.0812378 23.9205C-0.0812378 37.1761 10.6647 47.922 23.9203 47.922C37.1759 47.922 47.9219 37.1761 47.9219 23.9205C47.8987 10.6744 37.1664 -0.0578933 23.9203 -0.0810547ZM23.9203 43.7127C13.3073 43.6908 4.59133 35.3187 4.14397 24.7146H6.26213C6.70029 24.7146 7.05628 24.359 7.05628 23.9205C7.05628 23.482 6.70061 23.1263 6.26213 23.1263H4.14397C4.25946 20.1912 5.03235 17.3198 6.4049 14.7232L8.25813 15.7823C8.63823 16.0015 9.1243 15.8711 9.34354 15.491C9.56278 15.1109 9.4327 14.6248 9.05228 14.4056L7.20984 13.3465C8.77593 10.8762 10.8652 8.77929 13.3308 7.20463L14.3896 9.04707C14.6088 9.42717 15.0949 9.55757 15.475 9.33833C15.8554 9.11909 15.9855 8.63302 15.7662 8.25292L14.7072 6.41048C17.3082 5.0338 20.1853 4.25901 23.1262 4.14415V6.26231C23.1112 6.70047 23.4549 7.06788 23.8933 7.08248C23.9022 7.08279 23.9111 7.08279 23.9203 7.08279C24.3585 7.08279 24.7145 6.72712 24.7145 6.28864V4.1708C27.6493 4.28598 30.5207 5.05919 33.1173 6.43174L32.0585 8.28497C31.8393 8.66507 31.9694 9.15114 32.3495 9.37038C32.7299 9.58962 33.216 9.45922 33.4352 9.07911L34.494 7.23636C36.9621 8.79483 39.0583 10.8752 40.6362 13.331L38.7934 14.3897C38.4133 14.609 38.2829 15.095 38.5021 15.4751C38.7214 15.8556 39.2075 15.9857 39.5876 15.7664L41.4303 14.7077C42.8029 17.3039 43.5758 20.1756 43.6912 23.1105H41.5734C41.1349 23.1105 40.7789 23.4661 40.7789 23.9046C40.7789 24.3431 41.1349 24.6991 41.5734 24.6991H43.6912C43.255 35.3086 34.539 43.693 23.9203 43.7178V43.7127Z" fill="#BC6C25"/>
<path d="M25.6146 23.9208C25.6146 24.8565 24.8559 25.6151 23.9203 25.6151C22.9846 25.6151 22.226 24.8565 22.226 23.9208C22.226 22.9852 22.9846 22.2266 23.9203 22.2266C24.8559 22.2266 25.6146 22.9852 25.6146 23.9208Z" fill="white"/>
</g>
<defs>
<clipPath id="clip0">
<rect width="48" height="48" fill="white"/>
</clipPath>
</defs>
</svg>
