<svg width="32" height="32" viewBox="0 0 64 63" fill="none" xmlns="http://www.w3.org/2000/svg">
<g clip-path="url(#clip0)">
<path d="M32.1951 15.0916C22.9589 15.8809 16.1491 9.28284 16.9619 0.338458C26.1982 -0.450868 33.008 6.14719 32.1951 15.0916Z" fill="#606C38"/>
<path d="M32.5487 21.3239C31.7521 21.131 31.1262 20.4775 31.0307 19.6409C30.5937 15.8085 31.7257 12.0429 34.213 9.03522C36.7024 6.02751 40.2527 4.13785 44.2073 3.71662C45.3168 3.60048 46.3126 4.37406 46.4325 5.44683C46.5544 6.51961 45.7558 7.48412 44.6482 7.60419C41.7646 7.91126 39.1776 9.28717 37.3629 11.48C35.5482 13.6727 34.7251 16.4167 35.0422 19.2098C35.1641 20.2846 34.3655 21.2491 33.2559 21.3692C33.012 21.3967 32.7743 21.379 32.5487 21.3239Z" fill="#606C38"/>
<path d="M47.5116 15.0684C45.3087 14.4996 43.0306 14.6177 40.7952 15.3145C35.0523 17.1077 28.9456 17.1077 23.2027 15.3145C20.9673 14.6177 18.6893 14.4996 16.4864 15.0684C7.69113 17.338 3.44795 29.6621 7.00629 42.5964C10.5646 55.5307 20.5771 64.1739 29.3724 61.9044C29.3825 61.9024 29.3907 61.9004 29.4008 61.8965C31.1099 61.4497 32.8901 61.4497 34.5991 61.8965C34.6093 61.8985 34.6174 61.9004 34.6276 61.9044C43.4208 64.1739 53.4354 55.5287 56.9937 42.5964C60.55 29.6621 56.3048 17.338 47.5116 15.0684Z" fill="#606C38"/>
<path d="M56.9917 42.5944C53.4354 55.5268 43.4167 64.168 34.6174 61.9044H34.5971C32.8901 61.4517 31.1018 61.4517 29.3947 61.9044H29.3744C26.062 62.7508 22.587 62.0619 19.3558 60.1919C36.609 53.7356 49.5336 37.4373 52.2364 17.5762C57.7029 22.32 59.8367 32.2604 56.9917 42.5944Z" fill="#606C38"/>
</g>
<defs>
<clipPath id="clip0">
<rect width="64" height="61.9913" fill="white" transform="translate(0 0.274414)"/>
</clipPath>
</defs>
</svg>
