<svg width="32" height="32" viewBox="0 0 64 63" fill="none" xmlns="http://www.w3.org/2000/svg">
<g clip-path="url(#clip0)">
<path d="M9.5 29.9442C11.0127 29.9442 12.3818 29.3563 13.3936 28.4123L18.9438 31.1001C18.916 31.3191 18.875 31.5343 18.875 31.7603C18.875 34.7646 21.3984 37.2088 24.5 37.2088C27.6016 37.2088 30.125 34.7646 30.125 31.7603C30.125 30.9218 29.9121 30.1367 29.561 29.4263L37.0903 22.1333C37.8237 22.4734 38.6343 22.6796 39.5 22.6796C42.6016 22.6796 45.125 20.2353 45.125 17.2311C45.125 16.6655 45.0103 16.1305 44.8442 15.6174L51.3862 10.8661C52.2788 11.4435 53.3486 11.7827 54.5 11.7827C57.6016 11.7827 60.125 9.33842 60.125 6.3342C60.125 3.32998 57.6016 0.885742 54.5 0.885742C51.3984 0.885742 48.875 3.32998 48.875 6.3342C48.875 6.89986 48.9897 7.43477 49.1558 7.94793L42.6138 12.6992C41.7212 12.1218 40.6514 11.7827 39.5 11.7827C36.3984 11.7827 33.875 14.2269 33.875 17.2311C33.875 18.0697 34.0879 18.8548 34.439 19.5652L26.9097 26.8581C26.1763 26.5181 25.3657 26.3119 24.5 26.3119C22.9873 26.3119 21.6182 26.8998 20.6064 27.8438L15.0562 25.156C15.084 24.937 15.125 24.7218 15.125 24.4957C15.125 21.4915 12.6016 19.0473 9.5 19.0473C6.39844 19.0473 3.875 21.4915 3.875 24.4957C3.875 27.4999 6.39844 29.9442 9.5 29.9442Z" fill="#606C38"/>
<path d="M62.125 59.2444H60.125V20.863C60.125 19.8594 59.2861 19.0469 58.25 19.0469H50.75C49.7139 19.0469 48.875 19.8594 48.875 20.863V59.2444H45.125V31.7599C45.125 30.7563 44.2861 29.9438 43.25 29.9438H35.75C34.7139 29.9438 33.875 30.7563 33.875 31.7599V59.2444H30.125V46.2892C30.125 45.2855 29.2861 44.473 28.25 44.473H20.75C19.7139 44.473 18.875 45.2855 18.875 46.2892V59.2444H15.125V39.0246C15.125 38.0209 14.2861 37.2084 13.25 37.2084H5.75C4.71387 37.2084 3.875 38.0209 3.875 39.0246V59.2444H1.875C0.838867 59.2444 0 60.0569 0 61.0605C0 62.0642 0.838867 62.8767 1.875 62.8767H62.125C63.1611 62.8767 64 62.0642 64 61.0605C64 60.0569 63.1611 59.2444 62.125 59.2444Z" fill="#606C38"/>
</g>
<defs>
<clipPath id="clip0">
<rect width="64" height="61.9913" fill="white" transform="translate(0 0.885742)"/>
</clipPath>
</defs>
</svg>
