<svg width="500" height="500" viewBox="0 0 500 500" fill="none" xmlns="http://www.w3.org/2000/svg">
<path d="M125.23 389.24C194.14 422.08 305.86 422.09 374.77 389.24C443.68 356.39 443.67 303.15 374.77 270.31C305.87 237.47 194.14 237.47 125.23 270.31C56.32 303.15 56.33 356.4 125.23 389.24Z" fill="#F5F5F5"/>
<path d="M374.53 364.97C387.222 364.97 397.51 360.068 397.51 354.02C397.51 347.973 387.222 343.07 374.53 343.07C361.839 343.07 351.55 347.973 351.55 354.02C351.55 360.068 361.839 364.97 374.53 364.97Z" fill="#EBEBEB"/>
<path d="M120 355.59L128.13 350.9C132.669 347.196 136.124 342.335 138.13 336.83C140.64 329.91 140.29 324.65 138.49 322.01C136.28 318.76 130.55 319.33 130.32 326.17C129.84 339.65 125.91 349 120 355.59Z" fill="#283618"/>
<path opacity="0.2" d="M120 355.59L128.13 350.9C132.669 347.196 136.124 342.335 138.13 336.83C140.64 329.91 140.29 324.65 138.49 322.01C136.28 318.76 130.55 319.33 130.32 326.17C129.84 339.65 125.91 349 120 355.59Z" fill="black"/>
<path d="M120 356.09C119.894 356.089 119.791 356.054 119.707 355.99C119.622 355.927 119.559 355.838 119.528 355.737C119.497 355.636 119.499 355.527 119.533 355.427C119.568 355.327 119.633 355.24 119.72 355.18C138.52 342.18 134.88 324.05 134.84 323.87C134.826 323.804 134.826 323.736 134.838 323.67C134.85 323.605 134.876 323.542 134.912 323.485C134.949 323.429 134.996 323.381 135.052 323.343C135.107 323.305 135.169 323.279 135.235 323.265C135.301 323.251 135.368 323.25 135.434 323.263C135.5 323.275 135.563 323.3 135.619 323.337C135.676 323.374 135.724 323.421 135.762 323.476C135.8 323.532 135.826 323.594 135.84 323.66C135.84 323.85 139.68 342.6 120.32 356C120.226 356.064 120.114 356.096 120 356.09Z" fill="white"/>
<path d="M103.71 365C103.71 365 100.88 362.7 101.56 359.58C102.24 356.46 104.07 354.22 100.94 350.2C97.8101 346.18 96.9401 340.82 100.68 337.92C103.53 335.67 107.98 338.85 109.58 332.92C110.76 328.58 110.36 318.97 115.89 315.77C121.42 312.57 124.89 317.39 124.02 323.91C123.26 329.74 122.18 335.35 123.02 336.91C124.64 339.91 127.41 339.5 127.28 344.98C127.17 350.08 122.34 354.3 122.34 354.3L103.71 365Z" fill="#283618"/>
<path d="M113 360.11C112.878 360.109 112.76 360.064 112.668 359.983C112.577 359.902 112.517 359.791 112.5 359.67C111.07 347.82 114.5 327.36 117.3 321.28C117.324 321.213 117.361 321.151 117.411 321.1C117.46 321.048 117.52 321.008 117.586 320.981C117.653 320.955 117.724 320.943 117.795 320.946C117.867 320.949 117.937 320.968 118 321C118.06 321.027 118.114 321.066 118.158 321.114C118.203 321.162 118.237 321.218 118.259 321.28C118.282 321.341 118.292 321.407 118.288 321.472C118.285 321.537 118.269 321.601 118.24 321.66C115.47 327.66 112.16 348.18 113.53 359.51C113.544 359.642 113.506 359.773 113.423 359.876C113.341 359.979 113.221 360.045 113.09 360.06L113 360.11Z" fill="white"/>
<path d="M112.73 350.88C112.654 350.883 112.578 350.866 112.51 350.83C109.04 349.14 106.84 343.11 106.75 342.83C106.726 342.768 106.714 342.701 106.715 342.634C106.717 342.567 106.732 342.502 106.76 342.441C106.787 342.38 106.827 342.325 106.876 342.28C106.925 342.234 106.982 342.199 107.045 342.176C107.108 342.154 107.175 342.144 107.242 342.147C107.308 342.151 107.374 342.168 107.434 342.197C107.494 342.226 107.548 342.267 107.592 342.317C107.636 342.368 107.669 342.426 107.69 342.49C107.69 342.55 109.84 348.39 112.95 349.9C113.052 349.949 113.134 350.032 113.183 350.134C113.232 350.236 113.245 350.352 113.219 350.463C113.194 350.573 113.131 350.671 113.043 350.742C112.954 350.812 112.843 350.85 112.73 350.85V350.88Z" fill="white"/>
<path d="M112.67 354.88C112.57 354.881 112.472 354.85 112.39 354.793C112.308 354.735 112.245 354.654 112.21 354.56C112.16 354.438 112.161 354.302 112.211 354.18C112.262 354.058 112.358 353.961 112.48 353.91C118.32 351.57 121.96 344.62 122 344.54C122.061 344.422 122.166 344.333 122.293 344.293C122.42 344.253 122.557 344.264 122.675 344.325C122.793 344.386 122.882 344.492 122.922 344.618C122.963 344.745 122.951 344.882 122.89 345C122.73 345.3 119.04 352.36 112.89 354.84C112.822 354.873 112.746 354.887 112.67 354.88Z" fill="white"/>
<path d="M316.8 301.08C316.8 301.08 312.43 294 312 286.31C311.57 278.62 313.26 275.42 315.58 274.5C317.9 273.58 318.08 276.41 319.27 278.08C320.46 279.75 322.89 278.8 323.79 273.59C324.69 268.38 327.97 259.59 334.79 257.88C342.29 256.02 338.27 264.82 336.38 268.25C334.49 271.68 333.03 276.36 334.27 277.63C335.51 278.9 337.44 276.55 339.27 278.73C341.5 281.36 334.57 290.83 330.59 293.12L316.8 301.08Z" fill="#283618"/>
<path d="M322.79 298.111C322.724 298.108 322.66 298.093 322.6 298.065C322.54 298.038 322.487 297.999 322.442 297.95C322.398 297.902 322.363 297.845 322.34 297.784C322.318 297.722 322.307 297.656 322.31 297.591C322.987 285.22 326.845 273.234 333.51 262.791C333.548 262.736 333.596 262.69 333.652 262.655C333.708 262.62 333.771 262.596 333.836 262.586C333.902 262.576 333.969 262.579 334.033 262.595C334.097 262.611 334.157 262.64 334.21 262.681C334.315 262.759 334.385 262.874 334.406 263.003C334.426 263.132 334.395 263.264 334.32 263.371C327.774 273.661 323.986 285.463 323.32 297.641C323.316 297.706 323.299 297.771 323.271 297.83C323.242 297.889 323.202 297.942 323.153 297.986C323.103 298.029 323.046 298.063 322.984 298.084C322.922 298.106 322.856 298.115 322.79 298.111Z" fill="white"/>
<path d="M323.36 292.2C323.276 292.2 323.194 292.179 323.12 292.14C320.32 290.59 318.77 285.99 318.71 285.8C318.688 285.738 318.678 285.672 318.682 285.606C318.686 285.54 318.703 285.475 318.731 285.416C318.76 285.356 318.801 285.303 318.85 285.259C318.9 285.215 318.957 285.182 319.02 285.16C319.146 285.119 319.283 285.13 319.401 285.19C319.519 285.25 319.609 285.354 319.65 285.48C319.65 285.48 321.15 289.91 323.65 291.26C323.763 291.327 323.846 291.435 323.882 291.562C323.917 291.689 323.902 291.824 323.84 291.94C323.795 292.026 323.725 292.097 323.64 292.143C323.554 292.19 323.457 292.209 323.36 292.2Z" fill="white"/>
<path d="M323.85 289.17C323.739 289.169 323.632 289.131 323.545 289.062C323.458 288.993 323.397 288.898 323.37 288.79C323.354 288.727 323.35 288.661 323.359 288.597C323.369 288.532 323.391 288.47 323.424 288.415C323.458 288.359 323.502 288.31 323.554 288.272C323.607 288.233 323.667 288.205 323.73 288.19C330.95 286.36 333.45 282.58 333.47 282.54C333.506 282.484 333.552 282.436 333.606 282.398C333.66 282.36 333.721 282.333 333.785 282.319C333.85 282.304 333.917 282.303 333.982 282.314C334.047 282.326 334.109 282.35 334.165 282.385C334.221 282.421 334.269 282.467 334.307 282.521C334.345 282.575 334.372 282.636 334.387 282.701C334.401 282.765 334.402 282.832 334.391 282.897C334.38 282.962 334.356 283.024 334.32 283.08C334.21 283.25 331.61 287.22 323.98 289.16L323.85 289.17Z" fill="white"/>
<path d="M208 285.54C208 285.54 198.41 283.2 197.91 265.24C197.38 245.86 200.26 223.24 188.91 221.41C177.56 219.58 171.26 233.41 171.4 249.56C171.53 263.7 177.23 294.4 207.96 300.42L208 285.54Z" fill="#283618"/>
<path opacity="0.2" d="M208 285.54C208 285.54 198.41 283.2 197.91 265.24C197.38 245.86 200.26 223.24 188.91 221.41C177.56 219.58 171.26 233.41 171.4 249.56C171.53 263.7 177.23 294.4 207.96 300.42L208 285.54Z" fill="black"/>
<path d="M208 298.581H207.91C201 297.321 195.37 293.511 191.18 287.271C178.76 268.741 182.67 234.141 183.96 228.101C183.989 227.972 184.067 227.859 184.177 227.787C184.287 227.714 184.42 227.687 184.55 227.711C184.68 227.742 184.792 227.821 184.865 227.933C184.937 228.044 184.964 228.18 184.94 228.311C183.67 234.311 179.78 268.471 192.01 286.711C193.79 289.539 196.139 291.967 198.907 293.84C201.675 295.713 204.802 296.99 208.09 297.591C208.155 297.603 208.218 297.627 208.273 297.664C208.329 297.7 208.376 297.747 208.414 297.802C208.451 297.857 208.477 297.918 208.49 297.983C208.503 298.049 208.503 298.116 208.49 298.181C208.469 298.294 208.408 298.397 208.318 298.47C208.229 298.543 208.116 298.583 208 298.581Z" fill="white"/>
<path d="M208 344.67C198.09 346.01 182 345.99 172.71 338.67C163.42 331.35 165.36 325.05 168.93 322.42C172.5 319.79 175.6 316.79 169.46 310.95C163.32 305.11 153.46 295.73 150.26 281.66C147.06 267.59 148.64 258.79 154.92 255.86C161.01 253.02 162.62 257.54 166.35 266.86C170.08 276.18 178.47 268.19 185.65 271.1C192.83 274.01 192.54 279.77 192.99 284.72C193.44 289.67 195.81 291.04 199.88 291.04C203.95 291.04 208 293.38 208 298.04V344.67Z" fill="#283618"/>
<path d="M208 328.33C207.957 328.34 207.913 328.34 207.87 328.33C207.44 328.21 197.19 325.23 182.26 311.52C166.36 296.92 158.86 275.02 158.78 274.8C158.742 274.674 158.754 274.538 158.813 274.421C158.873 274.303 158.976 274.213 159.1 274.17C159.225 274.129 159.361 274.138 159.479 274.196C159.596 274.254 159.687 274.356 159.73 274.48C159.8 274.7 167.23 296.36 182.94 310.78C197.66 324.31 208.03 327.34 208.14 327.37C208.203 327.388 208.262 327.419 208.313 327.46C208.364 327.501 208.407 327.552 208.438 327.61C208.47 327.667 208.49 327.73 208.497 327.796C208.504 327.861 208.498 327.927 208.48 327.99C208.448 328.091 208.383 328.179 208.297 328.24C208.21 328.301 208.106 328.333 208 328.33Z" fill="white"/>
<path d="M186.43 315C186.33 315.002 186.231 314.972 186.149 314.914C186.066 314.857 186.004 314.775 185.97 314.68C182.76 306.44 182.03 288.81 181.97 288.06C181.967 287.928 182.016 287.8 182.105 287.703C182.195 287.606 182.318 287.548 182.45 287.54C182.581 287.542 182.706 287.592 182.802 287.681C182.898 287.769 182.958 287.89 182.97 288.02C182.97 288.2 183.72 306.23 186.87 314.32C186.894 314.382 186.906 314.448 186.904 314.514C186.903 314.58 186.888 314.645 186.861 314.706C186.834 314.766 186.795 314.821 186.747 314.866C186.699 314.911 186.642 314.947 186.58 314.97C186.532 314.987 186.481 314.997 186.43 315Z" fill="white"/>
<path d="M186.35 326.851C185.428 326.858 184.507 326.811 183.59 326.711C183.524 326.703 183.461 326.682 183.403 326.65C183.346 326.617 183.295 326.574 183.254 326.522C183.213 326.47 183.183 326.41 183.165 326.346C183.147 326.283 183.142 326.216 183.15 326.151C183.158 326.085 183.179 326.021 183.211 325.964C183.243 325.906 183.287 325.855 183.339 325.815C183.391 325.774 183.45 325.743 183.514 325.726C183.578 325.708 183.644 325.703 183.71 325.711C183.8 325.711 193.11 326.771 197.38 322.421C197.425 322.368 197.479 322.325 197.541 322.295C197.603 322.264 197.67 322.247 197.739 322.244C197.808 322.241 197.877 322.252 197.941 322.276C198.005 322.301 198.064 322.339 198.113 322.387C198.162 322.435 198.201 322.493 198.226 322.557C198.252 322.621 198.264 322.69 198.262 322.759C198.26 322.828 198.243 322.895 198.214 322.958C198.184 323.02 198.142 323.075 198.09 323.121C195 326.311 189.61 326.851 186.35 326.851Z" fill="white"/>
<path d="M179.15 137.49L178.07 131.26L172.51 134.92C172.002 133.92 171.282 133.043 170.4 132.35L173.06 125.15L168.06 124.04L164.4 131.04C163.076 131.263 161.792 131.681 160.59 132.28L159 127L153.06 131.67L153.45 137.87C152.24 139.225 151.143 140.677 150.17 142.21L145.27 141.96L141.83 149.67L146.04 151.47C145.6 153.065 145.322 154.7 145.21 156.35L139.86 161.27L140.93 167.51L146.5 163.85C147.005 164.849 147.726 165.723 148.61 166.41L146 173.62L151 174.72L156.24 169.62C157.45 169.43 157.15 167.15 158.47 166.5L160.06 171.76L165.99 167.1L165.84 164.66C167.04 163.32 171.58 160.37 172.56 158.83L173.79 156.83L177.23 149.12L175.63 146.22L173.85 142.44L179.15 137.49ZM161 158C156.44 161.58 155 162.37 154.23 157.58C153.46 152.79 156.07 145.51 160.63 141.92C165.19 138.33 166.93 138.08 167.75 142.86C168.57 147.64 165.57 154.46 161 158Z" fill="#E0E0E0"/>
<path d="M168.1 124.04L174.59 127.78L170.93 134.76L164.44 131.02L168.1 124.04Z" fill="#F5F5F5"/>
<path d="M184.56 135L179 138.66L172.51 134.92L178.07 131.26L184.56 135Z" fill="#F5F5F5"/>
<path d="M183.67 152.83L179.46 151.04L172.97 147.3L177.18 149.09L183.67 152.83Z" fill="#E0E0E0"/>
<path d="M145.99 173.62L152.48 177.35L155.14 170.15L148.65 166.41L145.99 173.62Z" fill="#E0E0E0"/>
<path d="M166.49 175.5L160.01 171.76L158.42 166.5L164.91 170.24L166.49 175.5Z" fill="#E0E0E0"/>
<path d="M185.63 141.23L184.56 135L179 138.66C178.488 137.66 177.765 136.783 176.88 136.09L179.54 128.89L174.59 127.78L170.92 134.78C169.596 135.004 168.312 135.422 167.11 136.02L165.53 130.76L159.59 135.43L159.98 141.63C158.769 142.995 157.672 144.456 156.7 146L151.79 145.75L148.35 153.46L152.56 155.26C152.124 156.859 151.846 158.497 151.73 160.15L146.39 165L147.46 171.24L153.02 167.58C153.532 168.578 154.255 169.451 155.14 170.14L152.48 177.34L157.48 178.45L161.14 171.45C162.469 171.229 163.757 170.808 164.96 170.2L166.54 175.46L172.48 170.8L172.09 164.6C173.3 163.245 174.397 161.794 175.37 160.26L180.28 160.5L183.72 152.79L179.45 151C179.893 149.402 180.174 147.764 180.29 146.11L185.63 141.23ZM167.5 161.78C162.95 165.36 158.59 164.39 157.76 159.61C156.93 154.83 159.96 148.04 164.52 144.46C169.08 140.88 173.43 141.86 174.26 146.64C175.09 151.42 172.06 158.2 167.5 161.78Z" fill="#EBEBEB"/>
<path d="M165.53 130.74L159.04 127L153.1 131.67L159.59 135.41L165.53 130.74Z" fill="#F5F5F5"/>
<path d="M153.1 131.67L153.49 137.87L159.98 141.61L159.59 135.41L153.1 131.67Z" fill="#E0E0E0"/>
<path d="M156.7 145.95L150.21 142.21L145.31 141.97L151.79 145.71L156.7 145.95Z" fill="#F5F5F5"/>
<path d="M145.31 141.97L141.87 149.67L148.35 153.41L151.79 145.71L145.31 141.97Z" fill="#E0E0E0"/>
<path d="M151.73 160.09L145.25 156.35L139.9 161.27L146.38 165.01L151.73 160.09Z" fill="#F5F5F5"/>
<path d="M147.46 171.25L140.97 167.51L139.9 161.27L146.38 165.01L147.46 171.25Z" fill="#E0E0E0"/>
<path d="M174.59 127.78L168.1 124.04L173.06 125.15L179.54 128.89L174.59 127.78Z" fill="#F5F5F5"/>
<path d="M150.09 109.21V99.8999L142.68 103.24C142.287 101.66 141.61 100.166 140.68 98.8299L145.35 89.4199L139.65 86.1299L133.83 94.8799C132.208 94.7382 130.574 94.8975 129.01 95.3499L128.19 87.2599L120.13 91.9199L119.32 100.92C117.566 102.474 115.953 104.181 114.5 106.02L108.68 104.02L102.98 113.9L107.64 117.9C106.779 120.077 106.11 122.326 105.64 124.62L98.23 129.83V139.15L105.64 135.81C106.032 137.389 106.71 138.884 107.64 140.22L103 149.64L108.7 152.93L114.52 144.18C116.142 144.321 117.776 144.162 119.34 143.71L120.15 151.8L128.21 147.14L129.03 138.14C131.546 137.222 133.774 135.656 135.49 133.6L139.67 135.07L145.37 125.2L141.87 122.2C142.63 119.698 142.911 117.076 142.7 114.47L150.09 109.21ZM124.16 132.47C117.98 136.04 114.16 133.47 114.16 126.36C114.16 119.25 119.27 110.46 125.46 106.89C131.65 103.32 135.39 105.89 135.39 113.06C135.39 120.23 130.35 128.89 124.16 132.47Z" fill="#E0E0E0"/>
<path d="M146.13 89.8599L139.65 86.1299L133.83 94.8799L140.31 98.6199L146.13 89.8599Z" fill="#F5F5F5"/>
<path d="M156.58 103.639L150.09 99.8994L142.68 103.239L149.17 106.979L156.58 103.639Z" fill="#F5F5F5"/>
<path d="M126.61 155.54L120.13 151.8L119.32 143.71L125.8 147.45L126.61 155.54Z" fill="#E0E0E0"/>
<path d="M102.97 149.639L109.46 153.38L114.13 143.969L107.64 140.229L102.97 149.639Z" fill="#E0E0E0"/>
<path d="M156.58 113V103.69L149.17 107C148.782 105.419 148.103 103.924 147.17 102.59L151.84 93.1799L146.14 89.8799L140.32 98.6399C138.698 98.4933 137.063 98.6527 135.5 99.1099L134.68 90.9999L126.62 95.6599L125.8 104.66C124.048 106.217 122.436 107.923 120.98 109.76L115.16 107.76L109.46 117.64L114.13 121.64C113.264 123.816 112.595 126.065 112.13 128.36L104.72 133.57V142.89L112.13 139.55C112.518 141.131 113.196 142.626 114.13 143.96L109.46 153.37L115.16 156.66L120.98 147.91C122.602 148.052 124.236 147.892 125.8 147.44L126.62 155.53L134.68 150.87L135.49 141.87C137.244 140.316 138.857 138.609 140.31 136.77L146.13 138.77L151.83 128.9L147.16 124.9C148.025 122.724 148.695 120.475 149.16 118.18L156.58 113ZM130.65 136.26C124.46 139.83 119.44 136.93 119.44 129.79C119.44 122.65 124.44 113.96 130.65 110.38C136.86 106.8 141.85 109.71 141.85 116.85C141.85 123.99 136.83 132.63 130.65 136.21V136.26Z" fill="#EBEBEB"/>
<path d="M114.5 106.04L120.98 109.78L115.16 107.75L108.68 104L114.5 106.04Z" fill="#F0F0F0"/>
<path d="M108.679 104.01L102.978 113.894L109.466 117.636L115.167 107.753L108.679 104.01Z" fill="#F5F5F5"/>
<path d="M102.97 113.88L109.46 117.62L114.13 121.64L107.64 117.91L102.97 113.88Z" fill="#E0E0E0"/>
<path d="M105.64 124.63L112.13 128.37L104.72 133.58L98.23 129.84L105.64 124.63Z" fill="#F5F5F5"/>
<path d="M98.23 129.84L104.72 133.58V142.9L98.23 139.16V129.84Z" fill="#E0E0E0"/>
<path d="M134.68 90.9998L128.19 87.2598L120.13 91.9198L126.61 95.6598L134.68 90.9998Z" fill="#F5F5F5"/>
<path d="M217.88 358.049L311.88 303.769C312.087 303.697 312.266 303.561 312.393 303.382C312.52 303.203 312.588 302.989 312.588 302.769C312.588 302.55 312.52 302.336 312.393 302.157C312.266 301.977 312.087 301.842 311.88 301.769L303.19 296.769C302.652 296.498 302.058 296.357 301.455 296.357C300.852 296.357 300.258 296.498 299.72 296.769L205.69 350.999C205.483 351.072 205.304 351.207 205.177 351.387C205.05 351.566 204.982 351.78 204.982 351.999C204.982 352.219 205.05 352.433 205.177 352.612C205.304 352.791 205.483 352.927 205.69 352.999L214.41 357.999C214.944 358.278 215.537 358.428 216.139 358.436C216.742 358.445 217.338 358.312 217.88 358.049Z" fill="#E0E0E0"/>
<path d="M309.3 94.1992L224.54 143.139C223.28 143.962 222.231 145.069 221.479 146.372C220.727 147.675 220.292 149.137 220.21 150.639V351.709C220.21 354.469 222.15 355.589 224.54 354.209L309.3 305.269C310.562 304.449 311.611 303.342 312.364 302.038C313.116 300.735 313.55 299.272 313.63 297.769V96.6992C313.63 93.9392 311.7 92.8192 309.3 94.1992Z" fill="#455A64"/>
<path d="M224.54 143.14L309.3 94.1997C311.44 92.9597 313.21 93.7297 313.57 95.8797C313.37 94.5279 312.886 93.2338 312.15 92.0825C311.414 90.9311 310.443 89.9486 309.3 89.1997L305.78 87.1997C304.438 86.5189 302.955 86.1641 301.45 86.1641C299.945 86.1641 298.462 86.5189 297.12 87.1997L212.35 136.1C211.073 136.9 210.02 138.012 209.29 139.33L221.48 146.33C222.21 145.022 223.264 143.924 224.54 143.14Z" fill="#37474F"/>
<path d="M208 344.67C208.082 346.172 208.517 347.634 209.269 348.937C210.021 350.24 211.07 351.348 212.33 352.17L215.86 354.17C217.082 354.781 218.419 355.128 219.784 355.186C221.149 355.245 222.51 355.014 223.78 354.51C221.78 355.29 220.19 354.14 220.19 351.67V150.64C220.24 149.131 220.677 147.661 221.46 146.37L209.27 139.37C208.498 140.651 208.062 142.106 208 143.6V344.67Z" fill="#263238"/>
<path d="M226.87 169.93L307 123.68C308.44 122.86 309.6 123.53 309.6 125.18V274C309.552 274.902 309.291 275.78 308.84 276.562C308.388 277.344 307.757 278.008 307 278.5L226.9 324.75C225.46 325.58 224.3 324.91 224.3 323.25V174.43C224.346 173.531 224.602 172.655 225.048 171.873C225.495 171.092 226.119 170.426 226.87 169.93Z" fill="white"/>
<path d="M266.92 126.29C266.478 126.58 266.11 126.971 265.846 127.429C265.582 127.888 265.429 128.402 265.4 128.93C265.4 129.93 266.08 130.3 266.92 129.81C267.364 129.522 267.733 129.132 267.997 128.673C268.262 128.214 268.413 127.699 268.44 127.17C268.44 126.2 267.76 125.81 266.92 126.29Z" fill="#37474F"/>
<path d="M266.92 308.74C265.172 309.883 263.718 311.423 262.675 313.233C261.633 315.043 261.032 317.074 260.92 319.16C260.92 322.99 263.61 324.55 266.92 322.63C268.668 321.486 270.121 319.946 271.164 318.136C272.206 316.326 272.808 314.296 272.92 312.21C272.94 308.38 270.24 306.82 266.92 308.74Z" fill="#37474F"/>
<path d="M252.53 141.769C251.651 142.353 250.922 143.134 250.401 144.052C249.88 144.969 249.581 145.996 249.53 147.049C249.53 148.989 250.89 149.779 252.53 148.809C253.418 148.231 254.157 147.452 254.687 146.534C255.217 145.617 255.523 144.587 255.58 143.529C255.58 141.589 254.22 140.799 252.53 141.769Z" fill="#37474F"/>
<path d="M260 141.11C260 142.41 261 142.9 262.17 142.21L282.17 130.64C282.79 130.253 283.309 129.725 283.686 129.099C284.063 128.474 284.287 127.768 284.34 127.04C284.34 125.75 283.34 125.26 282.17 125.95L262.17 137.52C261.552 137.906 261.033 138.432 260.656 139.055C260.279 139.679 260.054 140.383 260 141.11Z" fill="#37474F"/>
<path d="M214.76 176.369C215.47 176.832 216.06 177.455 216.484 178.188C216.908 178.921 217.153 179.744 217.2 180.589C217.2 182.149 216.11 182.779 214.76 181.999C214.053 181.535 213.464 180.912 213.042 180.179C212.62 179.446 212.376 178.624 212.33 177.779C212.33 176.229 213.42 175.599 214.76 176.369Z" fill="#37474F"/>
<path d="M214.76 195.15C215.47 195.612 216.06 196.235 216.484 196.968C216.908 197.702 217.153 198.524 217.2 199.37C217.2 200.92 216.11 201.55 214.76 200.78C214.053 200.316 213.464 199.692 213.042 198.959C212.62 198.226 212.376 197.405 212.33 196.56C212.33 195 213.42 194.37 214.76 195.15Z" fill="#37474F"/>
<path d="M214 176.75C214.71 177.212 215.3 177.835 215.724 178.569C216.148 179.302 216.393 180.124 216.44 180.97C216.44 182.52 215.35 183.15 214 182.38C213.29 181.918 212.7 181.295 212.276 180.562C211.852 179.829 211.607 179.006 211.56 178.16C211.57 176.6 212.66 176 214 176.75Z" fill="#455A64"/>
<path d="M214 195.52C214.711 195.983 215.303 196.608 215.727 197.343C216.151 198.078 216.395 198.902 216.44 199.75C216.44 201.3 215.35 201.93 214 201.15C213.289 200.689 212.697 200.067 212.273 199.333C211.848 198.6 211.604 197.776 211.56 196.93C211.57 195.38 212.66 194.75 214 195.52Z" fill="#455A64"/>
<path d="M325.82 129.889C325.82 128.229 324.66 127.559 323.22 128.389L313.63 133.919L243.12 174.639C242.363 175.131 241.732 175.796 241.28 176.578C240.829 177.36 240.568 178.237 240.52 179.139V327.919C240.52 329.579 241.68 330.249 243.12 329.419L313.66 288.689L323.22 283.169C323.977 282.677 324.608 282.013 325.06 281.231C325.511 280.449 325.772 279.571 325.82 278.669V129.889Z" fill="white"/>
<path d="M326.82 129.89C326.883 129.389 326.797 128.88 326.572 128.427C326.347 127.974 325.994 127.598 325.556 127.345C325.119 127.092 324.616 126.974 324.112 127.005C323.607 127.036 323.123 127.215 322.72 127.52L313.57 132.81L242.62 173.81C241.707 174.387 240.947 175.177 240.407 176.112C239.867 177.048 239.563 178.101 239.52 179.18V327.92C239.48 328.419 239.576 328.92 239.798 329.369C240.02 329.818 240.359 330.199 240.78 330.47C241.138 330.678 241.546 330.785 241.96 330.78C242.546 330.762 243.118 330.593 243.62 330.29L314.62 289.29L323.75 284.02C324.658 283.438 325.414 282.646 325.953 281.712C326.492 280.778 326.8 279.728 326.85 278.65L326.82 129.89ZM313.59 287.58L312.77 288.06L242.66 328.54C242.542 328.631 242.406 328.694 242.26 328.725C242.115 328.756 241.965 328.754 241.82 328.72C241.69 328.64 241.56 328.36 241.56 327.9V179.14C241.612 178.414 241.828 177.709 242.191 177.079C242.555 176.448 243.057 175.908 243.66 175.5L313.7 135L323.7 129.21C323.818 129.12 323.954 129.056 324.1 129.025C324.245 128.994 324.395 128.996 324.54 129.03C324.67 129.11 324.8 129.39 324.8 129.85V278.67C324.748 279.396 324.532 280.101 324.169 280.732C323.805 281.362 323.303 281.902 322.7 282.31L313.57 287.58H313.59Z" fill="#283618"/>
<path d="M283.17 164.459C292.17 159.279 299.42 163.459 299.42 173.849C299.42 184.239 292.14 196.849 283.17 201.989C274.2 207.129 266.92 202.989 266.92 192.609C266.92 182.229 274.2 169.649 283.17 164.459Z" fill="#283618"/>
<path d="M283.17 172.619C286.08 170.939 288.44 172.299 288.44 175.619C288.341 177.448 287.812 179.228 286.897 180.815C285.981 182.401 284.704 183.749 283.17 184.749C280.26 186.429 277.9 185.069 277.9 181.749C277.999 179.92 278.528 178.141 279.443 176.554C280.359 174.968 281.636 173.62 283.17 172.619Z" fill="#283618"/>
<path d="M293.44 190.54C293.44 185.02 289.57 182.78 284.78 185.54L281.78 187.27C277 190.03 273.12 196.75 273.12 202.27V203.76C275.89 204.67 279.37 204.18 283.12 201.99C287.274 199.428 290.787 195.949 293.39 191.82L293.44 190.54Z" fill="#283618"/>
<path opacity="0.7" d="M283.17 172.619C286.08 170.939 288.44 172.299 288.44 175.619C288.341 177.448 287.812 179.228 286.897 180.815C285.981 182.401 284.704 183.749 283.17 184.749C280.26 186.429 277.9 185.069 277.9 181.749C277.999 179.92 278.528 178.141 279.443 176.554C280.359 174.968 281.636 173.62 283.17 172.619Z" fill="white"/>
<path opacity="0.7" d="M293.44 190.54C293.44 185.02 289.57 182.78 284.78 185.54L281.78 187.27C277 190.03 273.12 196.75 273.12 202.27V203.76C275.89 204.67 279.37 204.18 283.12 201.99C287.274 199.428 290.787 195.949 293.39 191.82L293.44 190.54Z" fill="white"/>
<path d="M251.73 224.84L272.64 212.77C273.64 212.22 274.37 212.66 274.37 213.77V214.46C274.338 215.061 274.165 215.646 273.865 216.167C273.564 216.688 273.144 217.131 272.64 217.46L251.73 229.53C250.78 230.08 250 229.63 250 228.53V227.84C250.032 227.239 250.206 226.654 250.507 226.133C250.807 225.612 251.226 225.169 251.73 224.84Z" fill="#283618"/>
<path opacity="0.1" d="M251.73 224.84L272.64 212.77C273.64 212.22 274.37 212.66 274.37 213.77V214.46C274.338 215.061 274.165 215.646 273.865 216.167C273.564 216.688 273.144 217.131 272.64 217.46L251.73 229.53C250.78 230.08 250 229.63 250 228.53V227.84C250.032 227.239 250.206 226.654 250.507 226.133C250.807 225.612 251.226 225.169 251.73 224.84Z" fill="black"/>
<path d="M250.87 239.41L314.13 202.89C314.6 202.61 314.99 202.83 314.99 203.39V210.77C314.972 211.069 314.886 211.361 314.736 211.621C314.587 211.881 314.38 212.103 314.13 212.27L250.87 248.79C250.39 249.07 250 248.84 250 248.29V240.91C250.017 240.609 250.105 240.317 250.256 240.056C250.407 239.796 250.617 239.574 250.87 239.41Z" fill="#283618"/>
<path opacity="0.2" d="M250.87 239.41L314.13 202.89C314.6 202.61 314.99 202.83 314.99 203.39V210.77C314.972 211.069 314.886 211.361 314.736 211.621C314.587 211.881 314.38 212.103 314.13 212.27L250.87 248.79C250.39 249.07 250 248.84 250 248.29V240.91C250.017 240.609 250.105 240.317 250.256 240.056C250.407 239.796 250.617 239.574 250.87 239.41Z" fill="white"/>
<path d="M251.73 257.67L272.64 245.6C273.64 245.05 274.37 245.5 274.37 246.6V247.29C274.339 247.891 274.166 248.476 273.866 248.998C273.565 249.519 273.145 249.962 272.64 250.29L251.73 262.36C250.78 262.92 250 262.47 250 261.36V260.67C250.034 260.07 250.208 259.485 250.509 258.964C250.809 258.444 251.227 258 251.73 257.67Z" fill="#283618"/>
<path opacity="0.1" d="M251.73 257.67L272.64 245.6C273.64 245.05 274.37 245.5 274.37 246.6V247.29C274.339 247.891 274.166 248.476 273.866 248.998C273.565 249.519 273.145 249.962 272.64 250.29L251.73 262.36C250.78 262.92 250 262.47 250 261.36V260.67C250.034 260.07 250.208 259.485 250.509 258.964C250.809 258.444 251.227 258 251.73 257.67Z" fill="black"/>
<path d="M250.87 272.239L314.13 235.719C314.6 235.439 314.99 235.669 314.99 236.219V243.599C314.972 243.899 314.886 244.19 314.736 244.45C314.587 244.711 314.38 244.933 314.13 245.099L250.87 281.619C250.39 281.899 250 281.679 250 281.119V273.739C250.017 273.438 250.105 273.146 250.256 272.885C250.407 272.625 250.617 272.403 250.87 272.239Z" fill="#283618"/>
<path opacity="0.2" d="M250.87 272.239L314.13 235.719C314.6 235.439 314.99 235.669 314.99 236.219V243.599C314.972 243.899 314.886 244.19 314.736 244.45C314.587 244.711 314.38 244.933 314.13 245.099L250.87 281.619C250.39 281.899 250 281.679 250 281.119V273.739C250.017 273.438 250.105 273.146 250.256 272.885C250.407 272.625 250.617 272.403 250.87 272.239Z" fill="white"/>
<path d="M276.1 276.429L301.1 262.019C302.1 261.459 302.84 261.909 302.84 263.019V270.739C302.807 271.341 302.632 271.927 302.33 272.448C302.028 272.97 301.606 273.412 301.1 273.739L276.1 288.159C275.1 288.709 274.37 288.259 274.37 287.159V279.429C274.405 278.829 274.579 278.245 274.88 277.724C275.18 277.204 275.598 276.76 276.1 276.429Z" fill="#283618"/>
<path opacity="0.1" d="M276.1 276.429L301.1 262.019C302.1 261.459 302.84 261.909 302.84 263.019V270.739C302.807 271.341 302.632 271.927 302.33 272.448C302.028 272.97 301.606 273.412 301.1 273.739L276.1 288.159C275.1 288.709 274.37 288.259 274.37 287.159V279.429C274.405 278.829 274.579 278.245 274.88 277.724C275.18 277.204 275.598 276.76 276.1 276.429Z" fill="black"/>
<path d="M391.9 109.83L390.25 110.83C390.388 110.242 390.466 109.643 390.48 109.04C390.48 105.69 388.13 104.34 385.23 106.04C384.347 106.572 383.56 107.248 382.9 108.04C382.9 103.54 379.74 101.71 375.84 103.96C373.785 105.3 372.075 107.106 370.848 109.231C369.621 111.356 368.913 113.74 368.78 116.19C368.78 116.42 368.78 116.64 368.78 116.86C367.775 116.733 366.758 116.967 365.91 117.52C364.382 118.515 363.11 119.857 362.198 121.437C361.286 123.016 360.759 124.788 360.66 126.61C360.659 127.033 360.703 127.455 360.79 127.87L359.91 128.38C357.52 129.76 355.58 132.45 355.58 134.38C355.58 136.31 357.52 136.77 359.91 135.38L391.91 116.93C394.3 115.55 396.24 112.86 396.24 110.93C396.24 109 394.29 108.44 391.9 109.83Z" fill="#EBEBEB"/>
</svg>
