<svg width="257" height="231" viewBox="0 0 257 231" fill="none" xmlns="http://www.w3.org/2000/svg">
<path d="M254.745 88.3391C254.653 88.3391 254.563 88.3109 254.488 88.2582L129.794 1.30566C129.414 1.04228 128.963 0.90152 128.502 0.902308C128.04 0.903097 127.59 1.04539 127.211 1.31006L3.41512 88.2573C3.31721 88.326 3.19602 88.3531 3.07822 88.3324C2.96042 88.3117 2.85565 88.2449 2.78697 88.1469C2.71829 88.0489 2.69132 87.9275 2.71199 87.8096C2.73267 87.6916 2.79929 87.5867 2.89721 87.5179L126.693 0.570713C127.223 0.200224 127.854 0.00106798 128.5 4.28325e-06C129.147 -0.00105941 129.778 0.196018 130.309 0.564762L255.003 87.517C255.082 87.572 255.141 87.6507 255.172 87.7417C255.203 87.8327 255.204 87.9312 255.176 88.0229C255.147 88.1146 255.09 88.1947 255.012 88.2516C254.935 88.3085 254.841 88.3391 254.745 88.3391L254.745 88.3391Z" fill="#3F3D56"/>
<path d="M10.4893 91.4214L128.624 3.75586L247.656 97.6592L134.711 164.701L73.392 150.706L10.4893 91.4214Z" fill="#E6E6E6"/>
<path d="M78.5679 206.11H20.2062C19.8478 206.11 19.4929 206.04 19.1617 205.903C18.8305 205.766 18.5295 205.565 18.2759 205.311C18.0224 205.058 17.8212 204.757 17.684 204.425C17.5467 204.094 17.4761 203.738 17.4761 203.38C17.4761 203.021 17.5467 202.665 17.684 202.334C17.8212 202.002 18.0224 201.701 18.2759 201.448C18.5295 201.194 18.8305 200.993 19.1617 200.856C19.4929 200.719 19.8478 200.649 20.2062 200.649H78.5679C78.9263 200.649 79.2812 200.719 79.6124 200.856C79.9436 200.993 80.2446 201.194 80.4982 201.448C80.7517 201.701 80.9529 202.002 81.0901 202.334C81.2274 202.665 81.298 203.021 81.298 203.38C81.298 203.738 81.2274 204.094 81.0901 204.425C80.9529 204.757 80.7517 205.058 80.4982 205.311C80.2446 205.565 79.9436 205.766 79.6124 205.903C79.2812 206.04 78.9263 206.11 78.5679 206.11Z" fill="#283618"/>
<path d="M41.1451 194.371H20.2062C19.8478 194.372 19.4929 194.302 19.1617 194.165C18.8305 194.028 18.5295 193.827 18.2759 193.573C18.0224 193.319 17.8212 193.018 17.684 192.687C17.5467 192.355 17.4761 192 17.4761 191.641C17.4761 191.282 17.5467 190.927 17.684 190.596C17.8212 190.264 18.0224 189.963 18.2759 189.71C18.5295 189.456 18.8305 189.255 19.1617 189.118C19.4929 188.981 19.8478 188.911 20.2062 188.911H41.1451C41.5034 188.911 41.8584 188.981 42.1896 189.118C42.5208 189.255 42.8218 189.456 43.0754 189.71C43.3289 189.963 43.5301 190.264 43.6673 190.596C43.8046 190.927 43.8752 191.282 43.8752 191.641C43.8752 192 43.8046 192.355 43.6673 192.687C43.5301 193.018 43.3289 193.319 43.0754 193.573C42.8218 193.827 42.5208 194.028 42.1896 194.165C41.8584 194.302 41.5034 194.372 41.1451 194.371Z" fill="#283618"/>
<path d="M130.286 140.25C129.842 140.25 129.403 140.164 128.992 139.996L56.1343 109.726V14.9766C56.1353 14.1388 56.4681 13.3355 57.0598 12.7431C57.6514 12.1506 58.4537 11.8174 59.2904 11.8164H199.062C199.899 11.8174 200.701 12.1506 201.293 12.7431C201.885 13.3355 202.217 14.1388 202.218 14.9766V109.792L202.082 109.851L131.618 139.981C131.196 140.159 130.743 140.25 130.286 140.25Z" fill="white"/>
<path d="M130.285 140.475C129.812 140.476 129.344 140.384 128.906 140.205L55.9088 109.877V14.9768C55.9098 14.0791 56.2664 13.2184 56.9004 12.5837C57.5343 11.9489 58.3939 11.5918 59.2904 11.5908H199.062C199.959 11.5918 200.818 11.9489 201.452 12.5837C202.086 13.2184 202.443 14.0791 202.444 14.9768V109.941L131.707 140.189C131.257 140.378 130.774 140.476 130.285 140.475ZM56.8105 109.274L129.25 139.37C129.926 139.645 130.682 139.64 131.355 139.358L201.542 109.345V14.9768C201.541 14.3185 201.28 13.6873 200.815 13.2219C200.35 12.7564 199.72 12.4945 199.062 12.4937H59.2904C58.633 12.4945 58.0027 12.7564 57.5378 13.2219C57.0729 13.6873 56.8114 14.3185 56.8106 14.9768L56.8105 109.274Z" fill="#3F3D56"/>
<path d="M253.844 87.4365H253.754L201.993 109.567L131.174 139.846C130.897 139.963 130.6 140.024 130.3 140.025C130 140.027 129.702 139.969 129.424 139.855L56.3596 109.504L3.32742 87.4726L3.2464 87.4365H3.15614C2.31936 87.4375 1.51712 87.7707 0.925435 88.3632C0.333745 88.9556 0.000928469 89.7589 0 90.5967V227.84C0.00092966 228.678 0.333745 229.481 0.925435 230.074C1.51712 230.666 2.31937 230.999 3.15614 231H253.844C254.681 230.999 255.483 230.666 256.075 230.074C256.666 229.481 256.999 228.678 257 227.84V90.5967C256.999 89.7589 256.666 88.9556 256.075 88.3632C255.483 87.7707 254.681 87.4375 253.844 87.4365ZM256.098 227.84C256.098 228.439 255.86 229.013 255.438 229.436C255.015 229.859 254.442 230.097 253.844 230.097H3.15614C2.55831 230.097 1.98504 229.859 1.56232 229.436C1.13959 229.013 0.901993 228.439 0.901754 227.84V90.5967C0.902572 90.013 1.12871 89.4522 1.53288 89.0315C1.93706 88.6108 2.48798 88.3629 3.0705 88.3394L56.3596 110.479L129.077 140.691C129.864 141.011 130.746 141.006 131.53 140.677L201.993 110.547L253.934 88.3394C254.516 88.3646 255.065 88.6132 255.468 89.0337C255.871 89.4541 256.097 90.0139 256.098 90.5967V227.84Z" fill="#3F3D56"/>
<path d="M129.557 113.383C126.868 113.388 124.249 112.517 122.097 110.901L121.964 110.801L93.8691 89.263C92.568 88.2648 91.476 87.0198 90.6554 85.599C89.8348 84.1782 89.3018 82.6095 89.0867 80.9824C88.8716 79.3554 88.9787 77.7019 89.4018 76.1162C89.8249 74.5306 90.5558 73.044 91.5527 71.7412C92.5496 70.4384 93.7931 69.3449 95.212 68.5233C96.631 67.7017 98.1976 67.1679 99.8226 66.9526C101.448 66.7372 103.099 66.8444 104.683 67.2681C106.266 67.6917 107.751 68.4235 109.052 69.4218L127.25 83.3934L170.253 27.2379C171.251 25.9355 172.494 24.8425 173.914 24.0213C175.333 23.2002 176.9 22.667 178.525 22.4522C180.15 22.2374 181.801 22.3452 183.385 22.7695C184.968 23.1938 186.453 23.9262 187.753 24.9249L187.486 25.2884L187.76 24.9302C190.384 26.9493 192.101 29.9282 192.534 33.2132C192.967 36.4982 192.081 39.8211 190.07 42.4528L139.488 108.505C138.318 110.027 136.813 111.259 135.091 112.105C133.369 112.951 131.475 113.388 129.557 113.383Z" fill="#283618"/>
</svg>
