<svg width="32" height="32" viewBox="0 0 64 63" fill="none" xmlns="http://www.w3.org/2000/svg">
<path d="M23.3543 35.9772C23.885 37.5535 25.4024 38.6197 27.1125 38.6197H54.9186C56.6953 38.6197 58.2534 37.472 58.7284 35.8129L63.8561 17.8954C64.1859 16.7425 63.9416 15.5067 63.1938 14.5536C62.4459 13.6018 61.2841 13.043 60.049 13.043H18.9663L15.2542 8.03552C13.3025 5.4062 10.1658 3.8457 6.82156 3.8457H2.92896C1.31382 3.8457 0 5.10514 0 6.67222C0 8.23929 1.31382 9.49741 2.92896 9.49741H6.1918C8.04038 9.49741 9.77631 10.3651 10.8472 11.8257L16.078 18.9616V41.2543C16.078 44.8775 19.1101 47.8144 22.8494 47.8144H54.1789C55.7954 47.8144 57.1051 46.555 57.1051 44.9892C57.1051 43.4248 55.7954 42.164 54.1789 42.164H23.6257C22.7354 42.164 22.0133 41.4659 22.0133 40.6022V31.9951L23.3543 35.9772Z" fill="#606C38"/>
<path d="M22.3445 59.138C24.7784 59.138 26.7515 57.2268 26.7515 54.8693C26.7515 52.5117 24.7784 50.6006 22.3445 50.6006C19.9106 50.6006 17.9375 52.5117 17.9375 54.8693C17.9375 57.2268 19.9106 59.138 22.3445 59.138Z" fill="#606C38"/>
<path d="M50.8753 59.138C53.3093 59.138 55.2823 57.2268 55.2823 54.8693C55.2823 52.5117 53.3093 50.6006 50.8753 50.6006C48.4414 50.6006 46.4683 52.5117 46.4683 54.8693C46.4683 57.2268 48.4414 59.138 50.8753 59.138Z" fill="#606C38"/>
</svg>
