<svg width="49" height="48" viewBox="0 0 49 48" fill="none" xmlns="http://www.w3.org/2000/svg">
<g clip-path="url(#clip0)">
<path d="M24.8973 8.4375V33.503C26.0179 34.1514 26.7723 35.3622 26.7723 36.75C26.7723 38.821 25.0933 40.5 23.0223 40.5C20.9512 40.5 19.2723 38.821 19.2723 36.75C19.2723 35.3622 20.0267 34.1514 21.1473 33.503V8.4375C21.1473 7.40194 21.9867 6.5625 23.0223 6.5625C24.0578 6.5625 24.8973 7.40194 24.8973 8.4375ZM35.2098 18C36.2453 18 37.0848 17.1606 37.0848 16.125C37.0848 15.0894 36.2453 14.25 35.2098 14.25H31.4598V11.3438H35.2098C36.2453 11.3438 37.0848 10.5043 37.0848 9.46875C37.0848 8.43319 36.2453 7.59375 35.2098 7.59375H31.4177C30.993 3.33591 27.39 0 23.0223 0C18.3698 0 14.5848 3.78506 14.5848 8.4375V29.3086C12.7653 31.3644 11.7723 33.9771 11.7723 36.75C11.7723 42.9533 16.819 48 23.0223 48C29.2255 48 34.2723 42.9533 34.2723 36.75C34.2723 34.3936 33.5509 32.1367 32.1859 30.2236C31.5845 29.3806 30.4135 29.1847 29.5706 29.7862C28.7276 30.3876 28.5318 31.5585 29.1332 32.4014C30.0419 33.6753 30.5223 35.179 30.5223 36.75C30.5223 40.8855 27.1578 44.25 23.0223 44.25C18.8868 44.25 15.5223 40.8855 15.5223 36.75C15.5223 34.7192 16.3214 32.8174 17.7725 31.3946C18.1321 31.0419 18.3348 30.5594 18.3348 30.0558V8.4375C18.3348 5.85281 20.4376 3.75 23.0223 3.75C25.607 3.75 27.7098 5.85281 27.7098 8.4375V22.6875C27.7098 23.7231 28.5492 24.5625 29.5848 24.5625H35.2098C36.2453 24.5625 37.0848 23.7231 37.0848 22.6875C37.0848 21.6519 36.2453 20.8125 35.2098 20.8125H31.4598V18H35.2098Z" fill="url(#paint0_linear)"/>
</g>
<defs>
<linearGradient id="paint0_linear" x1="11.7723" y1="24" x2="37.0848" y2="24" gradientUnits="userSpaceOnUse">
<stop stop-color="#BC6C25"/>
<stop offset="0.021" stop-color="#FE006B"/>
<stop offset="0.293" stop-color="#BC6C25" stop-opacity="0.95"/>
<stop offset="0.554" stop-color="#BC6C25" stop-opacity="0.9"/>
<stop offset="0.796" stop-color="#BC6C25" stop-opacity="0.85"/>
<stop offset="1" stop-color="#BC6C25" stop-opacity="0.8"/>
</linearGradient>
<clipPath id="clip0">
<rect width="48" height="48" fill="white" transform="translate(0.428589)"/>
</clipPath>
</defs>
</svg>
