<svg width="32" height="32" viewBox="0 0 64 63" fill="none" xmlns="http://www.w3.org/2000/svg">
<g clip-path="url(#clip0)">
<path d="M62.6816 45.331L40.0712 8.68016C38.3443 5.91682 35.3415 4.24414 32.0005 4.24414C28.6595 4.24414 25.6564 5.91682 23.9296 8.68016L1.31915 45.331C-0.407352 48.2036 -0.444977 51.6215 1.24428 54.4939C2.9334 57.3662 5.97378 59.0752 9.38992 59.0752H54.6108C58.0269 59.0752 61.0674 57.3662 62.7564 54.4939C64.4459 51.6215 64.4083 48.2036 62.6816 45.331Z" fill="#606C38"/>
<path d="M62.7562 54.4938C61.0671 57.3661 58.0267 59.0751 54.6106 59.0751H32.0001V4.24414C35.3409 4.24414 38.3441 5.91682 40.0709 8.68016L62.6814 45.331C64.4079 48.2035 64.4455 51.6214 62.7562 54.4938Z" fill="#606C38"/>
<path d="M9.38864 55.4392C7.31013 55.4392 5.53226 54.4379 4.50575 52.6945C3.47938 50.9493 3.49763 48.9306 4.56438 47.1589L27.1538 10.5376C28.1875 8.88301 30.0058 7.87988 31.9999 7.87988C33.9941 7.87988 35.8124 8.88288 36.8608 10.5626L59.454 47.1872C60.5025 48.9307 60.5207 50.9493 59.4942 52.6944C58.4679 54.4379 56.6898 55.4391 54.6113 55.4391H9.38864V55.4392Z" fill="#606C38"/>
<path d="M54.6115 55.4393C56.69 55.4393 58.4679 54.438 59.4944 52.6946C60.5208 50.9494 60.5025 48.9307 59.4541 47.1874L36.8608 10.5626C35.8123 8.88313 33.9942 7.87988 31.9999 7.87988V55.4393H54.6115Z" fill="#606C38"/>
<path d="M35.7538 19.0794V33.6234C35.7538 35.6233 34.0646 37.2594 32.0001 37.2594C29.9356 37.2594 28.2462 35.6232 28.2462 33.6234V19.0794C28.2462 17.0796 29.9354 15.4434 32.0001 15.4434C34.0647 15.4434 35.7538 17.0796 35.7538 19.0794Z" fill="#E1E4FB"/>
<path d="M35.7538 19.0794V33.6234C35.7538 35.6233 34.0646 37.2594 32.0001 37.2594V15.4434C34.0646 15.4434 35.7538 17.0796 35.7538 19.0794Z" fill="#FEFAE0"/>
<path d="M32.0001 40.8955C28.8843 40.8955 26.3693 43.3315 26.3693 46.3495C26.3693 49.3673 28.8842 51.8036 32.0001 51.8036C35.1159 51.8036 37.6308 49.3674 37.6308 46.3495C37.6308 43.3316 35.1157 40.8955 32.0001 40.8955Z" fill="#E1E4FB"/>
<path d="M37.6308 46.3494C37.6308 49.3671 35.1159 51.8035 32.0001 51.8035V40.8955C35.1157 40.8955 37.6308 43.3316 37.6308 46.3494Z" fill="#FEFAE0"/>
</g>
<defs>
<clipPath id="clip0">
<rect width="64" height="61.9913" fill="white" transform="translate(0 0.664062)"/>
</clipPath>
</defs>
</svg>
