<svg width="80" height="80" viewBox="0 0 80 80" fill="none" xmlns="http://www.w3.org/2000/svg">
<g clip-path="url(#clip0)">
<path d="M78.352 57.6429L50.0889 10.3448C47.9303 6.77872 44.1767 4.62012 40.0005 4.62012C35.8242 4.62012 32.0705 6.77872 29.9119 10.3448L1.64884 57.6429C-0.509289 61.3499 -0.55632 65.7607 1.55525 69.4676C3.66666 73.1743 7.46713 75.3798 11.7373 75.3798H68.2634C72.5335 75.3798 76.3341 73.1743 78.4454 69.4676C80.5573 65.7607 80.5103 61.3499 78.352 57.6429Z" fill="#E50027"/>
<path d="M78.4453 69.4674C76.3339 73.1742 72.5334 75.3796 68.2633 75.3796H40.0001V4.62012C44.1762 4.62012 47.9301 6.77872 50.0887 10.3448L78.3517 57.6429C80.5099 61.3498 80.5569 65.7605 78.4453 69.4674Z" fill="#C1001F"/>
<path d="M11.7358 70.6879C9.13767 70.6879 6.91533 69.3957 5.6322 67.1459C4.34923 64.8937 4.37204 62.2885 5.70548 60.0021L33.9423 12.7424C35.2344 10.607 37.5073 9.3125 39.9999 9.3125C42.4926 9.3125 44.7656 10.6069 46.076 12.7745L74.3175 60.0387C75.6281 62.2887 75.6509 64.8937 74.3678 67.1457C73.0848 69.3957 70.8623 70.6878 68.2642 70.6878H11.7358V70.6879Z" fill="#FD003A"/>
<path d="M68.2644 70.6871C70.8625 70.6871 73.0848 69.3949 74.368 67.1451C75.6509 64.8929 75.6281 62.2877 74.3176 60.038L46.076 12.7736C44.7654 10.6062 42.4927 9.31152 39.9999 9.31152V70.6871H68.2644Z" fill="#E50027"/>
<path d="M44.6923 23.7646V42.5337C44.6923 45.1145 42.5807 47.2259 40.0001 47.2259C37.4195 47.2259 35.3077 45.1143 35.3077 42.5337V23.7646C35.3077 21.1838 37.4193 19.0723 40.0001 19.0723C42.5809 19.0723 44.6923 21.1838 44.6923 23.7646Z" fill="#E1E4FB"/>
<path d="M44.6923 23.7646V42.5337C44.6923 45.1145 42.5807 47.2259 40.0001 47.2259V19.0723C42.5807 19.0723 44.6923 21.1838 44.6923 23.7646Z" fill="#C5C9F7"/>
<path d="M40.0001 51.9189C36.1054 51.9189 32.9616 55.0625 32.9616 58.9574C32.9616 62.8518 36.1052 65.9959 40.0001 65.9959C43.8949 65.9959 47.0385 62.8519 47.0385 58.9574C47.0385 55.0627 43.8946 51.9189 40.0001 51.9189Z" fill="#E1E4FB"/>
<path d="M47.0385 58.9572C47.0385 62.8516 43.8949 65.9957 40.0001 65.9957V51.9189C43.8946 51.9189 47.0385 55.0627 47.0385 58.9572Z" fill="#C5C9F7"/>
</g>
<defs>
<clipPath id="clip0">
<rect width="80" height="80" fill="white"/>
</clipPath>
</defs>
</svg>
