<svg width="48" height="48" viewBox="0 0 48 48" fill="none" xmlns="http://www.w3.org/2000/svg">
<path d="M45.9828 45.1746L40.8868 16.7429C40.6817 15.5983 39.6858 14.7651 38.5228 14.7651H30.0475C31.6366 13.1999 32.6241 11.0255 32.6241 8.62402C32.6241 3.86867 28.7555 0 24.0001 0C19.2448 0 15.3759 3.86867 15.3759 8.62402C15.3759 11.0255 16.3635 13.1999 17.9525 14.7651H9.47725C8.31424 14.7651 7.31853 15.5983 7.11327 16.7429L2.01722 45.1746C1.89185 45.8746 2.08286 46.5941 2.53933 47.1394C2.99563 47.6847 3.67016 47.9998 4.3812 47.9998H43.6189C44.3299 47.9998 45.0044 47.6847 45.4607 47.1394C45.917 46.5941 46.1082 45.8746 45.9828 45.1746ZM24.0001 4.80322C26.107 4.80322 27.8209 6.51717 27.8209 8.62402C27.8209 10.7309 26.107 12.445 24.0001 12.445C21.8933 12.445 20.1791 10.7309 20.1791 8.62402C20.1791 6.51717 21.8933 4.80322 24.0001 4.80322ZM23.3725 37.1651C23.2474 37.3956 23.006 37.5392 22.7437 37.5392H21.6108C21.3569 37.5392 21.1219 37.4046 20.9935 37.1854L18.1897 32.399L16.3966 34.2293V36.4335C16.3966 37.0442 15.9016 37.5392 15.2909 37.5392C14.6803 37.5392 14.1852 37.0442 14.1852 36.4335V27.6922C14.1852 27.0815 14.6803 26.5865 15.2909 26.5865C15.9016 26.5865 16.3966 27.0815 16.3966 27.6922V31.45L20.6521 26.8178C20.7876 26.6703 20.9787 26.5865 21.1789 26.5865H22.1512C22.4384 26.5865 22.6976 26.7581 22.8099 27.0224C22.9219 27.2868 22.8651 27.5926 22.6656 27.7989L19.7139 30.8522L23.3435 36.4337C23.4865 36.6538 23.4977 36.9343 23.3725 37.1651ZM34.2667 35.7065C34.2667 35.9239 34.1674 36.1304 33.9975 36.2661C33.5563 36.6181 32.9749 36.9342 32.2535 37.2141C31.3742 37.5552 30.4838 37.7258 29.5824 37.7258C28.4367 37.7258 27.4384 37.4856 26.5863 37.0048C25.7349 36.5243 25.0946 35.837 24.6663 34.9428C24.2379 34.0487 24.0238 33.0764 24.0238 32.0253C24.0238 30.8848 24.2628 29.8711 24.7411 28.9847C25.2192 28.098 25.919 27.4184 26.8406 26.9449C27.5425 26.5815 28.4168 26.3994 29.4628 26.3994C30.8226 26.3994 31.8846 26.6848 32.6493 27.2551C32.9805 27.5021 33.2606 27.7901 33.4893 28.119C33.708 28.4333 33.7524 28.8369 33.6073 29.1911C33.4623 29.5454 33.1477 29.8024 32.7713 29.8728L32.7687 29.8733C32.3278 29.9557 31.8807 29.7604 31.642 29.3806C31.4893 29.1376 31.2944 28.9296 31.058 28.7565C30.6319 28.4453 30.1002 28.2897 29.4628 28.2897C28.4964 28.2897 27.728 28.5961 27.1581 29.2085C26.5878 29.8214 26.3026 30.7303 26.3026 31.9356C26.3026 33.2357 26.5913 34.2106 27.1693 34.8606C27.7469 35.5105 28.5039 35.8355 29.4406 35.8355C29.9036 35.8355 30.3681 35.7447 30.8338 35.5629C31.2992 35.381 31.699 35.1605 32.0328 34.9018V33.5119H30.423C29.9133 33.5119 29.5004 33.0988 29.5004 32.5894C29.5004 32.0797 29.9135 31.6668 30.423 31.6668H33.5513C33.9464 31.6668 34.2667 31.9872 34.2667 32.3822V35.7065Z" fill="#BC6C25"/>
</svg>
